<?xml version="1.0" standalone="yes"?>
<svg xmlns="http://www.w3.org/2000/svg" width="190" height="132">
<path style="fill:#ffffff; stroke:none;" d="M0 0L0 132L190 132L190 0L0 0z"/>
<path style="fill:#000000; stroke:none;" d="M71 52C78.7017 51.0267 86.237 51 94 51C92.3446 53.7485 89.4926 54.6936 87.6026 57.2238C85.5445 59.979 86.0025 63.7599 86 67C84.9774 65.4661 85.1954 65.5977 84 65C78.2567 69.3511 72.7538 65.0031 67 63C62.4126 67.3269 56.8171 65.0382 51 65.0008C35.6543 64.9021 20.3447 62.127 5 62C4.97379 58.8783 4.72428 56.0395 4 53C2.44848 56.6975 3 61.0168 3 65C16.1969 65.0015 29.893 66.7179 43 68.2855C49.9068 69.1115 59.1355 71.5633 65.9985 70.1304C68.4409 69.6204 70.7223 67.982 73 67C70.6429 69.2369 69.645 70.8143 69 74L75 74C75.0005 78.1924 74.1753 82.5204 78 85C78.0008 77.9814 78.1571 73.4256 86 72L84 76C86.5251 75.1456 87.03 74.4917 88 72L94 74C93.1537 77.5958 93.1537 80.4042 94 84L96 84C96.8464 80.4042 96.8464 77.5958 96 74L102 72C102.97 74.4917 103.475 75.1456 106 76L104 72C111.843 73.4256 111.999 77.9814 112 85C115.825 82.5205 115 78.1924 115 74C117.528 73.9481 119.582 73.7224 122 73C120.52 70.5877 119.476 69.3391 117 68C118.742 66.8887 119.119 66.7295 120 65L123 71C136.373 68.5172 150.445 67.8605 164 66.9105C171.722 66.3693 179.23 65.0009 187 65L187 53C185.053 55.8496 185.03 58.5903 185 62C169.655 62.127 154.346 64.9021 139 65.0008C133.183 65.0382 127.587 67.3269 123 63L117 65C118.036 63.8137 118.339 63.3963 119 62C116.699 62.3972 115.095 62.957 113 64C114.506 64.683 115.315 64.8259 117 65L117 67C114.276 67 109.522 67.9456 107 67C105.526 66.4472 106.172 65.5862 105 65L105 67C104.16 64.1858 104.288 60.7038 102.821 58.1327C101.115 55.1439 97.733 54.0145 96 51C103.941 51 111.362 50.6167 119 53C117.209 47.3312 112.116 48.059 107 47.9961C99.2098 47.9005 91.7935 47.7939 84 47.9853C78.9609 48.1091 73.9892 47.2632 71 52z"/>
<path style="fill:#3e3e3e; stroke:none;" d="M66 54C66.0773 57.6657 67.2396 58.3594 69 61C69.8738 57.822 68.6836 55.7786 66 54z"/>
<path style="fill:#3f3f3f; stroke:none;" d="M123 54C120.781 57.2563 119.588 61.0677 117 64C122.267 65.0928 124.608 58.1635 123 54z"/>
<path style="fill:#ffffff; stroke:none;" d="M87 63C93.4499 60.1402 96.5501 60.1402 103 63C101.196 54.1729 88.8035 54.1728 87 63z"/>
<path style="fill:#262626; stroke:none;" d="M68 59C67.9162 61.7674 68.2319 62.3243 71 62C70.0275 60.7301 69.2699 59.9725 68 59z"/>
<path style="fill:#363636; stroke:none;" d="M70 62L69 63C73.383 67.3435 78.1593 67 84 67L84 65C78.6737 64.9965 74.797 64.4112 70 62z"/>
<path style="fill:#000000; stroke:none;" d="M71 62C72.9803 63.8842 74.3096 64.4693 77 65C75.0197 63.1158 73.6904 62.5307 71 62z"/>
<path style="fill:#3f3f3f; stroke:none;" d="M69.3333 65.6667C69.2778 65.7222 69.2222 66.7778 69.6667 66.3333C69.7222 66.2778 69.7778 65.2222 69.3333 65.6667z"/>
<path style="fill:#393939; stroke:none;" d="M106 65L106 67L117 67L117 65L106 65z"/>
<path style="fill:#3c3c3c; stroke:none;" d="M120 65C118.777 66.1952 118.58 66.3164 117 67C118.859 69.245 120.714 71.1988 123 73L124 72L120 65z"/>
<path style="fill:#ffffff; stroke:none;" d="M92 67L92 69C94.2317 69.3628 95.7683 69.3628 98 69L98 67C95.6626 66.4808 94.3597 66.52 92 67z"/>
<path style="fill:#3f3f3f; stroke:none;" d="M69 71L73 68C70.2517 67.3975 69.5004 68.3623 69 71z"/>
<path style="fill:#272727; stroke:none;" d="M65 73C66.4785 73.9857 66.2032 74 68 74L69 70C67.0514 70.9357 66.4498 71.3924 65 73z"/>
<path style="fill:#ffffff; stroke:none;" d="M70 71C71.2484 71.6848 71.5484 71.7488 73 72C71.7516 71.3152 71.4516 71.2512 70 71M117 71C118.248 71.6848 118.548 71.7488 120 72C118.752 71.3152 118.452 71.2512 117 71z"/>
<path style="fill:#272727; stroke:none;" d="M122 73C123.81 74.2397 123.777 74.1837 126 74C124.19 72.7603 124.223 72.8163 122 73z"/>
<path style="fill:#434343; stroke:none;" d="M64 73L64 77C65.4566 75.8966 65.8966 75.4566 67 74C65.5215 73.0143 65.7968 73 64 73z"/>
<path style="fill:#505050; stroke:none;" d="M125 74C125.031 75.8318 124.921 75.5587 126 77C125.749 75.5484 125.685 75.2483 125 74z"/>
</svg>
