<!DOCTYPE svg PUBLIC "-//W3C//DTD SVG 20010904//EN" "http://www.w3.org/TR/2001/REC-SVG-20010904/DTD/svg10.dtd">
<svg version="1.0" xmlns="http://www.w3.org/2000/svg" width="190px" height="132px" viewBox="0 0 1900 1320" preserveAspectRatio="xMidYMid meet">
<g id="layer101" fill="#020202" stroke="none">
 <path d="M670 815 c0 -30 3 -35 24 -35 13 0 29 -6 35 -14 14 -17 16 -17 -362 -52 -267 -25 -332 -35 -317 -47 4 -3 304 9 668 27 117 6 122 5 122 -13 0 -22 -24 -29 -125 -34 -43 -2 -34 -4 31 -5 l92 -2 6 -33 c7 -37 38 -71 74 -82 26 -8 29 -22 5 -27 -16 -3 -15 -6 5 -16 17 -10 27 -10 45 0 19 10 20 13 5 16 -25 5 -22 19 5 27 35 11 66 45 73 82 l6 33 92 2 c65 1 74 3 31 5 -101 5 -125 12 -125 34 0 18 5 19 123 13 363 -18 663 -30 667 -27 15 12 -51 22 -317 47 -425 40 -397 36 -378 56 9 10 25 15 39 13 29 -6 40 10 32 43 -9 34 -20 30 -67 -21 -39 -43 -44 -45 -93 -44 -87 2 -101 9 -101 49 0 25 -5 36 -17 38 -22 4 -35 -42 -19 -62 12 -14 -7 -18 -126 -29 -27 -2 -81 37 -93 69 -15 38 -40 31 -40 -11z"/>
 </g>
<g id="layer102" fill="#fcfcfc" stroke="none">
 <path d="M931 667 c-6 -9 -22 -12 -37 -9 -20 3 -25 1 -22 -9 3 -9 20 -14 49 -14 37 0 44 3 44 19 0 24 -18 31 -34 13z"/>
 <path d="M980 651 c0 -6 4 -12 9 -15 13 -8 42 4 35 15 -7 12 -44 12 -44 0z"/>
 <path d="M870 570 c0 -30 116 -42 144 -14 9 8 16 17 16 20 0 2 -36 4 -80 4 -45 0 -80 -4 -80 -10z"/>
 </g>

</svg>