<!DOCTYPE svg PUBLIC "-//W3C//DTD SVG 20010904//EN" "http://www.w3.org/TR/2001/REC-SVG-20010904/DTD/svg10.dtd">
<svg version="1.0" xmlns="http://www.w3.org/2000/svg" width="190px" height="132px" viewBox="0 0 1900 1320" preserveAspectRatio="xMidYMid meet">
<g id="layer101" fill="#000000" stroke="none">
 <path d="M670 851 c0 -56 -1 -59 -27 -66 -17 -4 -29 -2 -31 4 -5 15 -31 14 -47 -3 -15 -15 -158 -32 -176 -21 -6 4 -14 3 -18 -2 -3 -5 -73 -18 -155 -27 -118 -14 -155 -22 -177 -39 -16 -11 -29 -27 -29 -34 0 -17 4 -17 48 7 31 16 90 24 362 45 426 33 386 35 393 -22 5 -46 32 -81 89 -118 10 -6 18 -31 21 -67 l6 -58 -145 0 c-118 0 -144 -3 -144 -14 0 -12 29 -15 155 -18 85 -2 225 -2 310 0 126 3 155 6 155 18 0 11 -26 14 -146 14 l-147 0 7 38 c3 20 6 47 6 59 0 15 11 27 35 39 43 20 75 70 75 118 0 44 -36 43 385 11 278 -21 336 -29 367 -45 44 -24 48 -24 48 -7 0 7 -13 23 -28 34 -22 16 -61 25 -180 38 -84 10 -152 21 -152 24 0 3 -42 7 -93 8 -69 2 -95 6 -103 18 -13 17 -41 20 -46 4 -2 -6 -14 -8 -31 -4 -26 7 -27 10 -27 66 0 51 -3 59 -19 59 -19 0 -31 -34 -31 -89 0 -25 -2 -26 -42 -23 -24 2 -48 10 -55 19 -6 8 -17 13 -25 12 -7 -1 -30 5 -50 15 -29 12 -38 22 -38 41 0 18 -5 25 -20 25 -16 0 -20 -7 -20 -30 0 -22 -5 -30 -18 -30 -10 0 -27 -6 -37 -14 -11 -8 -25 -12 -32 -9 -7 3 -20 -2 -28 -11 -10 -9 -33 -16 -55 -16 l-38 0 -7 55 c-5 45 -10 55 -26 55 -17 0 -19 -7 -19 -59z m270 -21 c0 -5 -6 -10 -12 -10 -7 0 -24 -3 -38 -6 -24 -6 -25 -6 -5 9 22 18 55 22 55 7z m76 -5 c19 -14 19 -14 -3 -15 -28 0 -53 10 -53 21 0 14 34 11 56 -6z m-162 -181 c10 -25 -3 -15 -19 16 -16 31 -20 72 -7 84 4 4 10 -13 14 -39 4 -26 9 -53 12 -61z m223 60 c-2 -25 -11 -52 -19 -60 -12 -12 -13 -6 -4 46 11 70 31 82 23 14z m-109 9 c-4 -22 -22 -20 -26 1 -2 10 3 16 13 16 10 0 15 -7 13 -17z m-43 -3 c4 -6 -6 -10 -24 -10 -16 0 -33 5 -36 10 -4 6 6 10 24 10 16 0 33 -4 36 -10z m115 0 c0 -5 -13 -10 -30 -10 -16 0 -30 5 -30 10 0 6 14 10 30 10 17 0 30 -4 30 -10z m-100 -80 c0 -15 -7 -20 -25 -20 -14 0 -25 2 -25 4 0 2 -3 11 -6 20 -5 13 1 16 25 16 24 0 31 -4 31 -20z m80 16 c0 -20 -16 -36 -36 -36 -17 0 -24 6 -24 20 0 16 7 20 30 20 17 0 30 -2 30 -4z"/>
 </g>

</svg>