<!DOCTYPE svg PUBLIC "-//W3C//DTD SVG 20010904//EN" "http://www.w3.org/TR/2001/REC-SVG-20010904/DTD/svg10.dtd">
<svg version="1.0" xmlns="http://www.w3.org/2000/svg" width="190px" height="132px" viewBox="0 0 1900 1320" preserveAspectRatio="xMidYMid meet">
<g id="layer101" fill="#000000" stroke="none">
<path d="M716 993 c4 -16 8 -40 7 -55 0 -19 6 -28 21 -32 16 -4 18 -8 8 -18 -7 -7 -12 -43 -12 -95 l0 -83 -55 0 c-42 0 -55 -3 -55 -15 0 -11 13 -15 53 -15 51 0 52 -1 69 -40 16 -40 67 -80 101 -80 10 0 17 -8 17 -20 0 -11 9 -29 19 -39 15 -15 19 -28 14 -54 -5 -31 -10 -35 -42 -41 -20 -3 -215 -6 -433 -6 -219 0 -398 -4 -398 -8 0 -8 436 -22 687 -22 136 0 203 -14 203 -41 0 -24 17 -25 23 -1 4 16 5 16 6 0 1 -24 31 -23 31 1 0 27 67 41 203 41 251 0 687 14 687 22 0 4 -179 8 -397 8 -219 0 -415 3 -435 6 -33 6 -38 11 -44 42 -5 26 -3 37 9 43 8 5 18 23 22 39 4 17 11 30 17 30 33 0 79 36 98 76 21 43 23 44 71 44 37 0 49 4 49 15 0 11 -12 15 -49 15 l-49 0 -4 83 c-3 45 -8 90 -12 100 -6 13 -3 17 13 17 12 0 21 5 21 10 0 6 -4 10 -9 10 -6 0 -6 12 0 32 5 18 9 39 9 45 0 23 -20 13 -30 -14 -28 -78 -15 -73 -201 -73 -164 0 -169 1 -183 23 -8 12 -18 34 -21 50 -4 15 -14 27 -22 27 -12 0 -13 -6 -7 -27z"/>
</g>
<g id="layer102" fill="#2b2b2b" stroke="none">
<path d="M771 884 c-18 -23 -21 -41 -21 -124 0 -84 3 -101 23 -131 34 -50 59 -59 178 -59 94 0 110 3 140 23 47 31 61 80 57 190 -4 126 -5 127 -203 127 l-154 0 -20 -26z m59 -33 c0 -35 -3 -39 -30 -43 -25 -4 -30 -1 -30 17 0 26 27 65 46 65 10 0 14 -12 14 -39z m273 27 c9 -7 20 -28 23 -47 6 -30 5 -33 -10 -28 -10 4 -26 7 -37 7 -16 0 -19 7 -19 40 0 42 12 50 43 28z m-129 -4 c10 -4 16 -18 16 -35 0 -27 -3 -29 -40 -29 -38 0 -40 2 -40 29 0 36 26 50 64 35z m-144 -106 c0 -28 10 -42 33 -51 26 -10 25 -127 -1 -127 -25 0 -60 27 -77 60 -18 36 -20 126 -2 133 29 12 47 7 47 -15z m278 16 c18 -5 22 -13 22 -43 0 -86 -30 -135 -88 -147 l-32 -6 0 63 c0 57 3 65 23 74 13 6 23 21 25 38 3 28 11 31 50 21z m-134 -36 c11 -15 16 -45 16 -90 l0 -68 -45 0 -45 0 0 68 c0 70 17 112 45 112 8 0 21 -10 29 -22z"/>
</g>
<g id="layer103" fill="#585858" stroke="none">
<path d="M771 884 c-18 -23 -21 -41 -21 -116 0 -164 34 -198 198 -198 156 0 189 26 199 155 7 88 -2 140 -28 166 -17 17 -34 19 -173 19 l-155 0 -20 -26z m59 -34 c0 -28 -4 -40 -14 -40 -8 0 -21 -3 -30 -6 -22 -9 -22 43 1 68 27 30 43 22 43 -22z m143 28 c-2 -5 1 -8 6 -8 6 0 11 -13 11 -30 0 -28 -2 -30 -40 -30 l-41 0 2 38 c2 35 5 37 35 37 18 0 30 -3 27 -7z m141 -10 c9 -12 16 -33 16 -46 0 -20 -4 -23 -22 -18 -13 3 -29 6 -35 6 -8 0 -13 15 -13 40 0 33 3 40 19 40 11 0 27 -10 35 -22z m-284 -97 c0 -33 11 -51 31 -51 17 0 19 -8 19 -65 0 -58 -2 -65 -20 -65 -11 0 -34 13 -51 28 -27 24 -33 37 -37 85 -6 70 1 87 33 87 18 0 25 -5 25 -19z m284 13 c11 -4 16 -19 16 -50 0 -81 -43 -144 -97 -144 -22 0 -23 4 -23 63 0 55 3 63 23 72 13 6 23 21 25 38 3 27 21 34 56 21z m-142 -31 c14 -13 18 -31 18 -90 l0 -73 -45 0 -45 0 0 72 c0 52 4 76 17 90 20 22 31 23 55 1z"/>
<path d="M913 553 c-7 -3 -13 -13 -13 -24 0 -16 7 -19 46 -19 41 0 45 2 42 23 -2 17 -10 22 -33 23 -16 1 -36 -1 -42 -3z"/>
</g>
<g id="layer104" fill="#757575" stroke="none">
<path d="M779 891 c-21 -17 -24 -29 -27 -108 -4 -110 10 -159 57 -190 30 -20 46 -23 133 -23 172 0 198 26 198 195 0 148 3 145 -189 145 -132 0 -152 -2 -172 -19z m51 -41 c0 -28 -4 -40 -14 -40 -8 0 -21 -3 -30 -6 -22 -8 -22 49 0 70 28 28 44 20 44 -24z m158 1 l3 -39 -48 -4 -48 -3 0 36 c0 27 4 35 14 31 9 -3 12 -1 7 6 -5 8 5 12 31 12 38 0 39 -1 41 -39z m126 17 c19 -27 21 -68 4 -68 -45 1 -58 13 -58 51 0 32 4 39 19 39 11 0 27 -10 35 -22z m-282 -105 c2 -17 12 -32 26 -38 19 -9 22 -17 22 -72 0 -57 -2 -63 -21 -63 -12 0 -36 15 -55 34 -31 31 -34 39 -34 93 0 66 3 73 36 73 17 0 23 -7 26 -27z m287 18 c10 -6 12 -25 9 -71 -4 -55 -8 -66 -36 -91 -18 -16 -43 -29 -57 -29 -24 0 -25 3 -25 63 0 55 3 63 23 72 13 6 23 21 25 38 3 20 9 27 25 27 12 0 28 -4 36 -9z m-143 -28 c8 -11 13 -46 14 -90 l0 -73 -45 0 -45 0 0 72 c0 52 4 76 17 90 20 23 42 23 59 1z"/>
<path d="M910 545 c-18 -22 -3 -35 41 -35 32 0 39 4 39 19 0 23 -30 37 -42 19 -6 -10 -8 -10 -8 0 0 16 -15 15 -30 -3z"/>
</g>
<g id="layer105" fill="#a3a3a3" stroke="none">
<path d="M780 890 c-28 -28 -33 -60 -28 -155 9 -141 46 -169 215 -163 l105 3 34 37 34 38 0 108 c0 100 -2 110 -23 130 -22 21 -33 22 -170 22 -133 0 -149 -2 -167 -20z m331 -19 c10 -13 19 -34 19 -48 0 -21 -4 -24 -32 -21 -31 3 -33 6 -36 46 -3 40 -5 42 -36 42 -42 0 -45 -3 -36 -48 l6 -37 -53 0 -53 0 0 38 c0 26 4 36 12 31 7 -4 8 -3 4 4 -4 7 -23 12 -42 12 -33 0 -34 -1 -34 -39 0 -38 -11 -51 -46 -51 -18 0 -19 50 -1 72 19 25 35 27 175 25 127 -2 135 -3 153 -26z m-277 -112 c4 -19 13 -33 26 -36 17 -5 20 -14 20 -69 0 -60 -1 -64 -22 -64 -54 1 -88 54 -88 139 0 60 0 61 29 61 24 0 29 -5 35 -31z m291 -42 c0 -65 -2 -70 -33 -98 -18 -16 -43 -29 -57 -29 -24 0 -25 3 -25 63 0 58 2 65 25 75 17 8 25 20 25 37 0 24 3 26 33 23 l32 -3 0 -68z m-145 34 c5 -11 10 -51 10 -90 l0 -71 -45 0 -45 0 0 72 c0 52 4 76 17 90 21 24 50 23 63 -1z"/>
<path d="M916 547 c-27 -20 -11 -37 35 -37 32 0 39 4 39 19 0 22 -30 37 -40 20 -6 -8 -9 -8 -11 0 -3 8 -10 8 -23 -2z"/>
</g>
<g id="layer106" fill="#ececec" stroke="none">
<path d="M786 889 c-25 -20 -26 -24 -26 -131 l0 -110 34 -34 c19 -19 40 -34 47 -34 8 0 0 9 -18 20 -44 26 -53 48 -53 124 0 66 0 66 29 66 24 0 30 -5 34 -29 4 -18 14 -32 27 -36 20 -6 21 -13 18 -81 l-3 -74 79 0 c44 0 76 3 72 7 -4 4 -36 6 -72 5 l-64 -3 0 74 c0 65 3 77 25 101 31 33 38 33 67 -4 29 -38 66 -32 75 11 5 25 10 29 39 29 l34 0 0 -60 c0 -74 -20 -117 -63 -135 -18 -8 -25 -14 -17 -15 9 0 26 7 38 16 40 28 52 66 52 169 0 88 -2 98 -25 120 -23 24 -29 25 -163 25 -126 0 -142 -2 -166 -21z m324 -9 c11 -11 20 -33 20 -50 0 -28 -3 -30 -34 -30 -34 0 -35 1 -38 43 -3 36 -6 42 -28 45 -23 3 -25 0 -25 -40 l0 -43 -57 -3 -58 -3 0 46 c0 45 -1 46 -27 43 -25 -3 -28 -7 -31 -45 -3 -40 -5 -43 -33 -43 -26 0 -29 3 -29 34 0 58 22 66 182 66 125 0 140 -2 158 -20z"/>
<path d="M923 553 c-7 -3 -13 -11 -13 -19 0 -10 12 -14 40 -14 42 0 50 9 26 29 -11 9 -15 9 -19 -1 -4 -9 -8 -10 -14 -2 -4 6 -14 9 -20 7z"/>
</g>


</svg>