<?xml version="1.0" encoding="UTF-8"?><svg id="Layer_1" xmlns="http://www.w3.org/2000/svg" viewBox="0 0 410.41 129.3"><defs><style>.cls-1{fill:#fff;stroke-width:0px;}</style></defs><path class="cls-1" d="m3.8,111.29h8.7c3.23,0,5.04,2.02,5.04,4.51,0,2.23-1.43,3.71-3.07,4.06,1.88.29,3.42,2.18,3.42,4.35,0,2.73-1.83,4.77-5.14,4.77H3.8v-17.69Zm8.06,7.32c1.59,0,2.49-.95,2.49-2.28s-.9-2.31-2.49-2.31h-4.96v4.59h4.96Zm.13,7.64c1.7,0,2.71-.93,2.71-2.47,0-1.33-.93-2.44-2.71-2.44h-5.09v4.91h5.09Z"/><polygon class="cls-1" points="38.33 111.29 33.5 118.87 28.62 111.29 25.07 111.29 31.94 121.63 31.94 128.98 35.04 128.98 35.04 121.63 41.88 111.29 38.33 111.29"/><polygon class="cls-1" points="62.97 111.29 62.97 114.02 68.33 114.02 68.33 128.98 71.43 128.98 71.43 114.02 76.79 114.02 76.79 111.29 62.97 111.29"/><polygon class="cls-1" points="86.15 111.29 86.15 128.98 98.27 128.98 98.27 126.25 89.25 126.25 89.25 121.34 98.08 121.34 98.08 118.61 89.25 118.61 89.25 114.02 98.27 114.02 98.27 111.29 86.15 111.29"/><polygon class="cls-1" points="119.59 111.29 115.06 117.79 110.5 111.29 106.78 111.29 113.01 119.91 106.38 128.98 110.1 128.98 115.06 122.06 120.02 128.98 123.73 128.98 117.13 119.88 123.33 111.29 119.59 111.29"/><polygon class="cls-1" points="131.32 111.29 131.32 114.02 136.67 114.02 136.67 128.98 139.77 128.98 139.77 114.02 145.14 114.02 145.14 111.29 131.32 111.29"/><path class="cls-1" d="m160.67,122.38h-3.08v6.6h-3.1v-17.69h7.77c3.5,0,5.78,2.28,5.78,5.54s-2.07,4.85-4.19,5.2l4.32,6.95h-3.58l-3.93-6.6Zm1.17-8.35h-4.24v5.62h4.24c1.75,0,3.02-1.11,3.02-2.81s-1.27-2.81-3.02-2.81"/><path class="cls-1" d="m186.13,111c5.3,0,9.04,3.87,9.04,9.15s-3.74,9.15-9.04,9.15-9.04-3.87-9.04-9.15,3.74-9.15,9.04-9.15m0,2.76c-3.58,0-5.86,2.73-5.86,6.39s2.28,6.39,5.86,6.39,5.86-2.76,5.86-6.39-2.31-6.39-5.86-6.39"/><polygon class="cls-1" points="217.14 111.29 217.14 123.83 208.1 111.29 204.91 111.29 204.91 128.98 208.02 128.98 208.02 116.09 217.24 128.98 220.24 128.98 220.24 111.29 217.14 111.29"/><path class="cls-1" d="m251.33,113.92l3.31,8.94h-6.63l3.32-8.94Zm-1.94-2.63l-6.95,17.69h3.39l1.3-3.39h8.38l1.3,3.39h3.39l-6.95-17.69h-3.87Z"/><polygon class="cls-1" points="279.94 111.29 274.59 125.61 269.23 111.29 265.7 111.29 272.65 128.98 276.52 128.98 283.47 111.29 279.94 111.29"/><rect class="cls-1" x="292.14" y="111.29" width="3.1" height="17.69"/><path class="cls-1" d="m312.78,113.92l3.31,8.94h-6.63l3.31-8.94Zm-1.93-2.63l-6.95,17.69h3.39l1.3-3.39h8.38l1.3,3.39h3.39l-6.95-17.69h-3.87Z"/><polygon class="cls-1" points="327.47 111.29 327.47 114.02 332.83 114.02 332.83 128.98 335.93 128.98 335.93 114.02 341.29 114.02 341.29 111.29 327.47 111.29"/><rect class="cls-1" x="350.65" y="111.29" width="3.1" height="17.69"/><path class="cls-1" d="m372.5,111c5.31,0,9.04,3.87,9.04,9.15s-3.74,9.15-9.04,9.15-9.04-3.87-9.04-9.15,3.74-9.15,9.04-9.15m0,2.76c-3.58,0-5.86,2.73-5.86,6.39s2.28,6.39,5.86,6.39,5.86-2.76,5.86-6.39-2.31-6.39-5.86-6.39"/><polygon class="cls-1" points="403.51 111.29 403.51 123.83 394.46 111.29 391.28 111.29 391.28 128.98 394.38 128.98 394.38 116.09 403.61 128.98 406.61 128.98 406.61 111.29 403.51 111.29"/><path class="cls-1" d="m109.2,33.21c4.96,0,7.67,3.43,8.3,11.55h-18.23c.82-6.95,4.15-11.55,9.93-11.55m16.6,26.89l-1.8-.64c-3.34,5.41-6.23,7.04-10.29,7.04-8.57,0-14.62-7.76-14.62-17.51v-.9h26.89c-.36-11.91-8.21-18.04-15.52-18.04-9.57,0-18.14,8.57-18.14,22.46,0,11.01,7.04,20.48,18.32,20.48,7.4,0,12-4.78,15.15-12.9m18.23-26.89c4.96,0,7.66,3.43,8.3,11.55h-18.23c.82-6.95,4.16-11.55,9.93-11.55m16.6,26.89l-1.8-.64c-3.34,5.41-6.23,7.04-10.29,7.04-8.57,0-14.62-7.76-14.62-17.51v-.9h26.89c-.36-11.91-8.21-18.04-15.52-18.04-9.56,0-18.14,8.57-18.14,22.46,0,11.01,7.03,20.48,18.32,20.48,7.4,0,12-4.78,15.15-12.9m24.46-20.03c.81,2.43,2.8,3.7,4.51,3.7,2.34,0,4.42-2.34,4.42-5.14s-3.16-8.57-13.53-8.57-18.5,10.01-18.5,22.46,7.94,20.48,17.87,20.48c7.04,0,12-4.87,15.34-12.99l-1.72-.54c-3.6,5.51-6.85,6.77-10.74,6.77-9.02,0-13.89-8.12-13.89-17.77s4.24-15.16,10.11-15.16c4.42,0,4.87,3.16,6.14,6.77m26.7,30.41c-3.33-.27-6.22-2.07-6.22-7.22v-22.65c2.44-3.15,6.32-4.87,9.65-4.87,4.42,0,7.48,2.71,7.48,9.56v17.95c0,4.96-2.43,6.95-5.87,7.22v1.63h18.5v-1.72c-3.43-.27-5.77-1.63-5.77-6.58v-20.85c0-8.48-4.61-12.9-10.38-12.9-4.33,0-9.29,1.71-13.62,6.76V9.85l-1.17-.55-12.72,4.33v1.54c4.69-.18,7.04,1.44,7.04,7.58v41.06c0,4.96-2.35,6.32-6.23,6.58v1.72h19.31v-1.63Zm46.02-30.41c.82,2.43,2.8,3.7,4.52,3.7,2.34,0,4.42-2.34,4.42-5.14s-3.16-8.57-13.53-8.57-18.5,10.01-18.5,22.46,7.94,20.48,17.87,20.48c7.04,0,12-4.87,15.34-12.99l-1.72-.54c-3.61,5.51-6.86,6.77-10.74,6.77-9.02,0-13.89-8.12-13.89-17.77s4.24-15.16,10.11-15.16c4.42,0,4.87,3.16,6.13,6.77m30.78,30.41c-1.54-.09-2.8-.45-3.88-1.27-1.62-1.08-2.53-2.98-2.53-5.95v-21.11c1.17-2.8,2.62-4.51,4.33-4.87,2.8-.63,4.06,2.89,7.67,2.26,2.53-.54,3.79-3.25,3.34-5.59-.54-3.25-3.88-4.51-6.77-3.88-2.16.45-4.33,2.07-6.23,4.42-1.17,1.36-2.16,2.98-2.98,4.78v-7.85l-1.08-.45-11.74,4.15v1.54c4.33,0,6.59,2.25,6.59,7.94v19.22c0,4.96-2.53,6.32-6.4,6.58v1.72h19.67v-1.63Zm28.33-7.31c0-5.32-2.71-6.86-4.42-6.86-1.36,0-2.26.81-2.62,1.99-.28.99-.18,2.44,1.63,3.79,1.17.9,2.43,1.72,2.43,3.07,0,1.98-2.17,3.06-4.15,3.06-3.61,0-5.78-1.9-5.78-6.14,0-4.87,2.62-9.3,15.06-14.07v16.78c0,5.14,2.35,7.85,6.68,7.85,3.15,0,4.61-1.35,6.68-4.51l-1.44-1.17c-1.09,1.45-1.63,1.8-2.62,1.8-1.72,0-2.44-1.35-2.44-5.86v-19.22c0-9.11-3.97-13.62-13.09-13.62-7.57,0-13.8,3.25-13.8,8.75,0,2.62,1.71,4.51,4.06,4.51,2.62,0,4.16-1.98,4.16-4.87-.28-2.44-1.72-5.59,4.32-5.59,4.61,0,7.49,4.06,7.49,10.01v2.26c-19.49,6.5-22.82,13.08-22.82,18.59,0,4.78,3.15,9.29,9.92,9.29,4.24,0,10.74-2.35,10.74-9.83m35.28,7.22c-3.7-.18-6.68-2.35-6.68-7.04v-28.42h10.56v-3.16h-10.56v-10.02c0-5.05,1.72-7.58,4.61-7.58s3.25,2.08,4.15,4.51c.72,2.17,2.43,3.34,3.97,3.34,2.25,0,4.06-1.81,4.06-4.06s-2.43-6.95-10.74-6.95c-6.49,0-12.9,5.33-12.9,17.77v2.98h-6.5v3.16h6.5v29.05c0,4.61-2.8,6.14-6.05,6.41v1.72h19.58v-1.72Zm23.55-35.46v-3.16h-8.85v-12.09h-2.08c-1.26,6.32-5.23,12.09-11.64,12.09v3.16h6.86v28.87c0,5.31,2.8,9.2,8.12,9.2,3.52,0,5.95-1.9,9.11-6.14l-1.53-1.53c-1.45,2.07-3.08,2.62-5.15,2.62-2.35,0-3.7-1.35-3.7-5.95v-27.07h8.85Z"/><path class="cls-1" d="m379.29,23.11c0,2.01-1.69,3.69-3.72,3.69s-3.74-1.67-3.74-3.73,1.67-3.73,3.74-3.73,3.73,1.67,3.73,3.77m-6.77-.04c0,1.7,1.36,3.09,3.05,3.09s3.02-1.39,3.02-3.09-1.35-3.09-2.98-3.09c-1.73,0-3.09,1.35-3.09,3.09m2.39,2.17h-1.13v-4.34h1.94c.58,0,.91.08,1.21.29.3.22.49.62.49,1.02,0,.5-.26.9-.77,1.12l.83,1.91h-1.24l-.7-1.73h-.64v1.73Zm0-2.5h.58c.36,0,.43-.01.56-.09.12-.09.23-.28.23-.45,0-.15-.08-.3-.19-.4-.12-.1-.19-.11-.62-.11h-.56v1.05Z"/><path class="cls-1" d="m89.2,10.44h0c-5.23-5.54-11.95-9.07-21.8-10.17-9.54-1.06-18.43,1-24.99,5.76-6.57,4.75-10.27,10.93-11.12,18.53-.63,5.69.42,10.55,3.17,14.57,2.75,4.02,5.82,6.22,9.22,6.61,1.68.19,3.14-.13,4.25-1.1,1.06-.91,1.31-2.21,1.41-3.37.08-.99-.21-1.79-1.36-2.72-1.05-.85-3-.88-5.62-1.39-2.6-.53-5.03-2.44-6.25-4.07-1.18-1.62-1.89-4.58-1.02-9.98.66-4.18,4.89-9.46,8.46-11.67,4.72-2.93,10.32-5.58,18.78-4.91,7.78.63,13.86,3.05,18.09,7.79,4.79,5.36,5.3,11.93,4.66,17.71-.46,4.12-2.33,7.67-5.62,10.63-1.97,1.79-5.54,3.29-8.84,3.48-.46,0-.91.01-1.43.01-.04-.01-.09.41-.15.82l-.14.75h0v.02h.01c3.17,1.33,5.51,2.8,7,4.43,1.5,1.63,2.36,3.49,2.61,5.57.32,2.63-.23,4.89-1.65,6.77-1.4,1.84-3.11,2.87-5.17,3.1-7.21.57-6.63-5.34-5.73-6.82,1.29-2.12,3.01-1.67,2.24-4.05-.94-2.87-3.42-1.96-3.42-1.96-.68.07-4.15,1.04-3.43,7.08.7,5.84,5.01,9.34,9.46,10.8v.02c.22.07.43.12.64.18.14.04.27.08.4.11,1.83.48,3.69.64,5.62.46,3.58-.34,6.4-1.8,8.43-4.39,2.04-2.58,2.82-5.8,2.35-9.66-.29-2.44-1.1-4.49-2.45-6.18-1.47-1.86-3.7-3.56-6.6-5.1,2.62-.37,5.14-1.23,7.67-3.07,5.74-4.21,8.43-9.74,9.08-16.41.65-6.59-1.52-12.64-6.77-18.18"/><path class="cls-1" d="m57.93,39.06h0V15.24h-1.93l-11.46,4.92.59,1.59c1.31-.47,2.25-.7,2.84-.7.72,0,1.3.19,1.73.57.44.38.76,1.09.96,2.14.21,1.04.31,4.63.31,9.19v30.01c0,2.53-.17,4.2-.5,5.02-.33.82-.77,1.37-1.34,1.67-.98.55-2.31.84-4.02.84v1.59h12.81v-33.03Z"/><rect class="cls-1" x="0" y="91.81" width="410.41" height=".89"/></svg>