<svg version="1.1" id="Layer_1" xmlns="http://www.w3.org/2000/svg" xmlns:xlink="http://www.w3.org/1999/xlink" x="0px" y="0px"
	 width="100%" viewBox="0 0 896 544" enable-background="new 0 0 896 544" xml:space="preserve">
<path fill="#000000" opacity="1.000000" stroke="none" 
	d="
M53.468658,545.000000 
	C50.206291,530.676086 46.721939,516.444641 44.789555,502.005524 
	C42.237850,482.938660 40.828506,463.745422 40.497662,444.441925 
	C39.808064,404.206635 44.693817,364.694427 55.549404,326.053345 
	C58.711658,314.797089 58.551243,303.750519 58.538017,292.515778 
	C58.532787,288.072113 59.401440,285.578430 64.369270,285.578857 
	C67.564819,285.579132 69.812805,284.006714 71.114944,280.684784 
	C80.439926,256.895538 92.545586,234.469116 106.190758,212.964676 
	C115.272827,198.651566 125.615654,185.107574 136.559052,172.106049 
	C148.892776,157.452759 161.995728,143.526871 176.395798,130.850388 
	C206.544830,104.309944 239.452347,81.990898 275.869537,64.859879 
	C311.340851,48.173798 348.413605,37.019936 387.052338,30.499916 
	C403.107086,27.790789 419.248810,26.437841 435.397736,25.433575 
	C449.456879,24.559265 463.608490,24.998014 477.737640,26.120808 
	C485.421478,26.731413 493.100037,27.226738 500.767029,28.151608 
	C519.067993,30.359251 537.092346,33.897495 554.937622,38.481133 
	C577.895630,44.378017 600.177551,52.270603 621.741821,61.996037 
	C644.678467,72.340439 666.629639,84.580612 687.135315,99.258133 
	C693.353394,103.708885 699.331970,108.493347 705.533203,112.968552 
	C721.616516,124.575386 736.514343,137.790604 749.808533,152.244431 
	C772.879272,177.327850 793.484619,204.540543 810.061890,234.512817 
	C818.198425,249.224030 825.746277,264.258972 831.888977,279.926147 
	C833.455566,283.921936 835.567261,285.937958 839.902466,285.818512 
	C842.195679,285.755310 844.787598,285.836700 844.479675,289.460632 
	C842.770630,309.574066 848.619568,328.553345 853.000366,347.805573 
	C856.492615,363.153046 859.138245,378.643799 860.632996,394.407806 
	C862.299927,411.987244 863.386230,429.526489 862.999329,447.149323 
	C862.613953,464.702881 860.926331,482.145874 858.740479,499.586823 
	C856.858765,514.601440 853.210693,529.252380 850.997864,544.587463 
	C585.312439,545.000000 319.624878,545.000000 53.468658,545.000000 
M476.465210,375.262787 
	C480.304016,364.296814 474.825653,355.444489 463.531311,353.876160 
	C456.538727,352.905121 449.473969,353.262268 442.622253,353.793060 
	C431.660278,354.642303 426.467438,359.567322 426.455780,371.168976 
	C426.453705,373.252197 428.089569,375.484436 427.707214,377.395325 
	C425.684845,387.501434 425.085083,397.767914 423.870239,407.959381 
	C422.558411,418.964417 420.836609,429.943451 421.299957,441.105194 
	C421.425873,444.138245 422.199554,445.688293 425.585632,445.666107 
	C442.397308,445.555878 459.210144,445.564972 476.022247,445.625061 
	C479.493561,445.637482 481.533203,444.197723 481.546844,440.728149 
	C481.572937,434.094940 481.719910,427.482727 481.044495,420.825714 
	C480.114716,411.661560 478.713928,402.552338 478.248810,393.308441 
	C477.963806,387.643494 478.636139,381.606201 475.975464,376.035614 
	C475.975464,376.035614 476.079163,375.878113 476.465210,375.262787 
M197.777863,407.203217 
	C197.986923,409.846527 198.108444,412.500458 198.427765,415.130402 
	C198.806381,418.248901 197.765732,423.163513 202.060669,423.163879 
	C206.427094,423.164215 205.430862,418.220398 205.587555,415.137085 
	C206.007935,406.865356 206.813171,398.596924 207.456390,390.368073 
	C207.932602,384.275543 208.962311,378.162170 208.515076,372.054657 
	C207.523834,358.517731 213.821365,351.261841 227.456619,351.125000 
	C234.113953,351.058228 240.783676,351.693176 247.433273,351.503082 
	C259.727234,351.151611 266.021118,362.467712 264.235168,371.467346 
	C262.932373,378.032562 264.936188,383.674377 265.218323,391.193481 
	C267.468536,381.817291 266.341278,373.815002 266.423553,365.861359 
	C266.587280,350.033020 266.554810,334.202728 266.636963,318.373383 
	C266.649658,315.928314 265.829346,314.467743 263.121643,314.900787 
	C258.261017,315.678223 253.566971,313.737061 248.723053,314.052063 
	C247.539780,314.128998 245.934219,314.164642 245.881180,311.591034 
	C250.728073,312.186218 255.416672,310.269714 260.129089,310.791016 
	C274.200378,312.347565 288.310913,310.280029 302.367950,311.582367 
	C304.023163,311.735687 305.649963,311.609741 306.786957,309.934540 
	C308.633759,307.213593 311.446777,306.696045 313.568604,308.917450 
	C316.325073,311.803284 312.968353,313.395508 311.151245,315.037323 
	C312.143799,316.279724 314.521759,315.398682 314.452545,318.126648 
	C311.530151,317.890289 308.090271,320.455505 306.355255,315.626190 
	C305.703094,313.811005 303.855896,314.305511 302.416351,314.261169 
	C295.763824,314.056152 289.125458,314.817261 282.513763,314.872009 
	C277.604797,314.912689 276.238831,316.060547 276.266327,320.888031 
	C276.455383,354.051605 276.461884,387.216736 276.384399,420.381073 
	C276.352997,433.813904 277.345581,447.328217 273.484283,460.526917 
	C272.700043,463.207489 272.434143,465.647003 269.073456,466.317932 
	C267.043518,466.723236 267.640076,468.404480 267.879333,469.968811 
	C269.600189,481.220245 269.084290,492.553162 268.885010,503.867157 
	C268.839478,506.451752 268.055481,508.719055 264.138000,508.976166 
	C265.310242,506.835510 266.702271,505.443207 266.674164,503.311157 
	C266.546631,493.646851 266.728119,483.977570 266.528473,474.315674 
	C266.459595,470.983124 265.257507,468.091492 260.961121,468.103058 
	C244.962479,468.146118 228.963593,468.095612 212.964859,468.122467 
	C209.107361,468.128937 207.653564,470.098206 207.194702,474.022736 
	C206.185135,482.657074 206.929581,491.295593 206.482834,499.923157 
	C206.145828,506.431091 207.644699,507.744110 214.387634,507.780518 
	C226.218948,507.844391 238.051117,507.747864 249.882935,507.720764 
	C252.223572,507.715424 254.564240,507.720001 256.904877,507.720001 
	C256.891266,508.192413 256.877625,508.664795 256.863983,509.137207 
	C243.265533,511.381409 229.415466,507.353851 215.831650,510.198456 
	C237.734558,510.933716 259.663971,510.195740 281.548828,511.866150 
	C277.996185,513.795837 274.108398,512.719543 270.505219,513.649963 
	C289.318237,514.957947 308.101959,514.980225 327.065613,514.179871 
	C326.508240,512.471924 324.544495,513.541748 324.120453,510.717407 
	C333.293762,510.717407 342.353790,510.717407 351.041779,510.717407 
	C348.506836,495.267090 350.023834,481.054474 350.975861,466.731232 
	C348.592346,465.906616 346.283661,465.186646 345.910034,462.717041 
	C344.917725,456.158325 342.664551,449.811584 342.662872,443.087891 
	C342.652893,402.593719 342.630737,362.099518 342.612946,321.605347 
	C342.611572,318.476288 342.612732,315.347229 342.612732,312.241028 
	C348.881744,310.627350 354.533447,311.172852 360.370178,311.367645 
	C379.514496,312.006592 398.693268,311.610840 417.858795,311.619202 
	C419.591492,311.619934 421.430634,311.493134 422.085968,309.651154 
	C423.201172,306.516571 425.571716,307.229950 427.861328,307.371857 
	C429.490936,307.472870 430.998383,308.530518 432.741760,307.816895 
	C436.607269,306.234619 438.920288,307.987793 439.797211,311.647583 
	C440.620758,315.084503 438.054047,317.661835 433.641022,318.116669 
	C433.679779,316.204315 434.979431,313.630188 431.533844,313.307281 
	C428.752777,318.770569 426.228699,320.116852 423.180634,317.048859 
	C420.561401,314.412445 417.767181,314.195557 414.578583,314.259277 
	C394.115234,314.668182 373.636078,313.321381 353.177582,315.093506 
	C345.399597,315.767181 345.316772,315.399902 345.314392,323.430756 
	C345.306519,350.095703 345.270294,376.761017 345.410461,403.425323 
	C345.440155,409.069855 344.814850,414.754242 345.923431,420.377472 
	C346.214569,421.854248 346.203522,423.645569 348.346222,423.421600 
	C350.213593,423.226379 350.447144,421.648621 350.628235,420.063629 
	C351.901642,408.919556 353.469391,397.802002 354.422760,386.631561 
	C354.868439,381.409882 355.607147,376.240540 354.884430,370.794586 
	C353.325714,359.049103 360.734772,351.240326 372.633240,351.138367 
	C379.958862,351.075623 387.289215,351.301727 394.614288,351.510468 
	C404.333069,351.787415 410.583832,358.448639 410.450409,368.235138 
	C410.395935,372.225525 410.084900,376.236359 410.372437,380.202942 
	C411.244232,392.230194 412.356659,404.239899 413.363434,416.257446 
	C413.595947,419.032867 413.181091,422.900543 416.699432,423.095581 
	C420.448181,423.303406 419.804108,419.128784 420.584473,416.583710 
	C420.632111,416.428375 420.608978,416.252228 420.626495,416.086578 
	C421.534119,407.495026 422.609802,398.916809 423.294891,390.307556 
	C423.790131,384.083344 425.768341,377.881592 424.005157,371.573822 
	C422.306305,365.496338 426.854797,360.652802 427.263214,354.981384 
	C427.328461,354.075531 428.600525,354.253265 429.343689,353.954803 
	C441.416931,349.106384 454.011658,351.539001 466.364014,351.642303 
	C471.408722,351.684448 476.008759,354.322662 478.118347,360.058777 
	C479.895233,364.890259 480.078949,369.505829 479.951843,374.614624 
	C479.711151,384.288971 480.367615,394.062866 481.616943,403.669800 
	C482.442749,410.019562 481.915527,416.581512 484.051483,422.821930 
	C487.016785,423.469330 489.154694,422.826111 489.540192,419.527802 
	C490.618622,410.301300 491.453003,401.043213 492.699982,391.840424 
	C493.795105,383.758301 493.656128,375.679443 493.711090,367.564331 
	C493.766052,359.449463 498.227692,353.308044 504.943878,352.213531 
	C515.669312,350.465668 526.525024,350.608185 537.278809,352.134155 
	C543.089783,352.958740 546.356934,356.926849 548.474854,362.338257 
	C550.580444,367.718262 547.989258,372.960419 548.648865,378.065582 
	C550.459900,392.082123 551.226501,406.165131 552.336121,420.227478 
	C552.505188,422.370728 553.179504,423.772400 555.564880,423.725922 
	C558.177185,423.675049 558.233459,422.004822 558.222839,419.940765 
	C558.116150,399.277252 558.095642,378.613342 558.045166,357.949524 
	C558.014221,345.284271 557.970947,332.619049 557.939209,319.953796 
	C557.932434,317.248047 557.616089,315.040955 553.981689,314.988068 
	C546.839539,314.884155 539.702820,314.315063 532.561462,314.261292 
	C516.563293,314.140778 500.563446,314.243530 484.564545,314.181854 
	C482.617279,314.174347 480.280975,314.807709 478.767548,312.355469 
	C479.514160,311.962463 479.928040,311.554321 480.342743,311.553497 
	C505.948151,311.501221 531.553955,311.543457 557.158752,311.402191 
	C561.625000,311.377563 566.208923,311.092316 570.521729,310.039429 
	C576.593933,308.556946 576.520569,308.202179 576.610718,314.870972 
	C576.625122,315.941986 577.809998,317.057098 575.615662,318.844788 
	C571.788757,313.972626 566.263367,314.793274 560.650940,315.209503 
	C560.539917,316.204468 560.404663,316.852325 560.404297,317.500244 
	C560.385010,356.164642 560.240479,394.829865 560.471924,433.492828 
	C560.524048,442.206940 559.840271,450.712524 558.126648,459.224365 
	C557.356995,463.047455 556.263977,466.206818 551.630249,466.808472 
	C554.281921,478.980408 553.154663,490.993469 553.370728,502.950562 
	C553.464478,508.138123 552.164001,508.938507 546.776184,509.291779 
	C539.771729,509.751068 532.814331,509.102875 525.838379,508.990326 
	C516.330627,508.836945 506.869080,509.822235 497.385132,509.894043 
	C490.149994,509.948822 488.512329,508.108582 488.703674,500.896332 
	C488.954773,491.430023 488.051117,481.956055 489.525299,472.483948 
	C490.465271,466.444244 488.768219,465.346710 482.671967,467.164581 
	C484.517090,478.485107 484.085449,489.957916 483.990112,501.416504 
	C483.935303,508.002289 482.813019,509.290680 476.264008,509.835022 
	C472.664856,510.134155 469.020416,509.888550 465.396423,509.888550 
	C465.398285,510.160065 465.400146,510.431549 465.402039,510.703064 
	C526.107483,510.703064 586.812927,510.703064 647.518433,510.703064 
	C645.376099,509.910736 643.215149,510.034637 641.072998,509.886444 
	C635.632629,509.510010 633.733337,507.655945 634.238342,502.326355 
	C635.352966,490.562225 633.286926,478.673737 636.079407,466.763916 
	C633.151245,465.909729 630.783081,464.984039 629.953857,461.607513 
	C627.274231,450.697021 626.436462,439.632324 626.457397,428.467102 
	C626.525879,391.973846 626.613098,355.480560 626.765930,318.987610 
	C626.779480,315.752106 625.809448,314.425720 622.374329,314.964539 
	C619.316589,315.444153 616.030151,315.859192 613.695862,312.254425 
	C619.017151,309.080994 624.018616,311.338013 629.441772,312.227173 
	C629.441772,314.271637 629.443298,316.080597 629.441589,317.889557 
	C629.413391,348.387482 629.382751,378.885406 629.358643,409.383331 
	C629.355713,413.049652 629.384155,416.716003 629.404053,420.382294 
	C629.412903,422.022125 629.777527,423.430115 631.798096,423.492737 
	C633.676025,423.550903 634.429565,422.422668 634.644653,420.707916 
	C635.099670,417.079437 635.710754,413.467194 636.058167,409.829224 
	C637.345581,396.351471 640.151550,383.017548 638.712769,369.298370 
	C637.734802,359.973328 644.725220,352.396362 654.021240,351.621826 
	C662.496155,350.915680 670.966309,350.655426 679.462219,351.518341 
	C687.349243,352.319397 691.457581,356.097198 694.470337,363.357239 
	C696.487732,368.218933 694.085083,372.446259 694.435913,376.910706 
	C695.537354,390.926270 696.889465,404.922485 698.212158,418.919830 
	C698.385132,420.750610 697.854492,423.535461 700.899170,423.313080 
	C703.858459,423.096924 703.653320,420.422180 703.652405,418.279266 
	C703.649231,410.784485 703.528259,403.289642 703.531860,395.794891 
	C703.543762,371.130280 703.575989,346.465668 703.637268,321.801117 
	C703.648621,317.242523 702.208801,315.081085 696.950378,314.913635 
	C692.115234,314.759705 686.881287,315.151855 681.733215,312.907898 
	C683.902771,311.044495 685.934631,312.188934 687.532532,311.576996 
	C694.641235,308.854645 702.865295,314.035461 709.907837,307.905396 
	C710.840393,311.432007 709.991211,314.746948 711.522034,318.468597 
	C705.993530,317.523590 706.247681,320.780945 706.257935,324.010345 
	C706.320129,343.649933 706.333740,363.289734 706.371155,382.929443 
	C706.374084,384.444244 706.087280,386.070190 707.738525,387.595184 
	C709.678894,381.081970 708.605713,374.919312 708.615417,368.820831 
	C708.632385,358.175323 715.792114,351.008545 726.450562,351.066071 
	C731.616821,351.093964 736.793823,351.291016 741.947449,351.035889 
	C752.315796,350.522675 760.878296,352.872406 764.253784,364.961914 
	C766.342712,355.125153 766.187012,318.114899 764.237488,312.273804 
	C773.533325,310.289673 783.133667,310.437561 788.943542,313.120087 
	C784.050781,314.044495 779.086243,315.038116 774.142883,314.941925 
	C769.712769,314.855713 768.259399,316.194000 768.363281,320.607544 
	C768.598511,330.600464 768.388123,340.603638 768.378967,350.602631 
	C768.358459,373.090576 768.337708,395.578491 768.357544,418.066406 
	C768.359375,420.147095 767.780640,423.022400 770.640564,423.429077 
	C773.842285,423.884369 773.473450,420.912903 773.748840,418.852753 
	C774.693054,411.789551 776.116577,404.745056 776.421997,397.653137 
	C776.819580,388.419556 779.573120,379.430603 777.874695,369.916870 
	C776.236267,360.739746 783.576477,351.961182 792.109314,351.509674 
	C800.751099,351.052460 809.401794,350.686249 818.060364,351.568451 
	C829.806396,352.765259 833.421265,358.656830 833.711670,368.645325 
	C833.946289,376.716858 833.560059,384.854431 834.372681,392.955444 
	C835.283752,402.037048 836.139038,411.124237 837.051025,420.205750 
	C837.243164,422.119080 837.624390,423.951599 840.289124,423.551910 
	C842.557739,423.211639 842.574463,421.521759 842.642456,419.800751 
	C843.168274,406.504791 842.382324,393.271729 840.297791,380.146698 
	C837.853027,364.752960 834.946411,349.454895 830.696045,334.418762 
	C826.661682,320.146667 821.971802,306.111694 816.560120,292.317078 
	C814.809082,287.853668 811.096497,287.004608 807.629639,290.260773 
	C806.144226,291.655975 804.696533,292.535614 802.792236,292.170715 
	C799.661377,291.570740 796.325195,292.174530 793.408264,291.459961 
	C781.447144,288.529724 769.367371,288.855164 757.221680,288.868988 
	C669.559875,288.968781 581.897827,288.928802 494.235901,288.930695 
	C490.667938,288.930786 487.094055,288.949738 483.669403,287.891968 
	C483.684357,287.405945 483.699280,286.919891 483.714233,286.433838 
	C575.884644,286.433838 668.055054,286.433838 760.225403,286.433838 
	C760.278870,285.967010 760.332275,285.500183 760.385681,285.033325 
	C751.079224,280.461243 741.259216,277.022614 732.159363,271.940094 
	C705.112183,256.833527 683.105957,236.618393 667.390015,209.780670 
	C664.622070,205.053955 665.295532,203.282745 670.742065,202.253235 
	C674.339661,201.573196 676.144226,199.883423 675.853943,196.231339 
	C675.619141,193.276566 673.230713,192.205917 671.027710,190.993698 
	C637.379028,172.478485 601.726807,159.338928 564.086365,151.819336 
	C553.311768,149.666870 542.870178,151.794159 533.541870,158.019684 
	C531.696289,159.251419 530.038208,160.815781 530.361023,163.280151 
	C530.709045,165.937119 532.977295,166.360031 535.127502,166.935516 
	C545.254395,169.645966 555.407043,172.274429 565.464844,175.224350 
	C576.048035,178.328354 578.209839,187.583694 570.371033,195.312088 
	C558.692993,206.825577 545.923767,216.838120 531.453003,224.701401 
	C508.288147,237.288940 483.612396,244.192017 457.282776,245.230270 
	C439.504883,245.931305 422.079712,243.405716 405.081635,238.512772 
	C377.509033,230.575851 353.673401,216.167969 333.328857,195.872681 
	C329.398224,191.951584 327.432892,187.888535 328.913940,182.528015 
	C330.361847,177.287415 334.679443,175.671722 339.407166,174.491760 
	C349.088776,172.075378 358.717712,169.448608 368.391632,167.000381 
	C370.617432,166.437103 372.718262,165.688492 373.280029,163.318146 
	C373.823029,161.026947 372.017273,159.543533 370.390686,158.460999 
	C363.166748,153.653275 355.338074,150.791000 346.469666,151.327499 
	C330.200256,152.311707 315.011322,158.024704 299.446930,162.050262 
	C286.678467,165.352692 274.701965,170.929428 262.528107,175.884567 
	C251.407593,180.410995 240.934006,186.296921 230.379745,191.987900 
	C228.014130,193.263474 226.274063,195.247345 226.995285,198.037857 
	C227.750183,200.958664 229.576935,202.797333 233.124054,202.719330 
	C237.490646,202.623291 238.738144,205.150925 236.400070,209.109680 
	C230.113190,219.754410 222.708298,229.580643 214.233109,238.582001 
	C198.284622,255.520706 179.716309,268.782837 158.388062,278.124939 
	C153.150726,280.418976 147.855576,282.580963 142.586990,284.803650 
	C142.659775,285.180725 142.732544,285.557800 142.805328,285.934875 
	C233.837479,285.934875 324.869629,285.934875 416.096741,285.934875 
	C416.766479,284.228821 416.626801,281.466370 419.498596,282.087555 
	C426.055786,283.505951 432.749298,281.930817 439.438782,282.849701 
	C439.617676,285.601776 439.516022,288.721771 442.520996,289.183563 
	C446.212891,289.750916 444.428711,286.160583 445.208710,284.498077 
	C445.921570,282.978729 446.936371,282.061646 448.630432,282.069733 
	C450.111725,282.076843 452.439789,281.859039 452.625366,283.275635 
	C453.097107,286.876984 454.965942,290.345215 454.562775,294.130524 
	C451.233093,294.493011 448.812866,293.063965 446.067719,292.788483 
	C445.545258,294.313782 445.018158,295.763947 442.847443,295.610474 
	C440.446472,295.440796 442.362640,293.321869 441.332367,292.633148 
	C436.909119,295.205536 432.665680,290.740753 428.746735,293.081665 
	C427.186615,290.622650 430.109344,287.997070 426.855804,286.577179 
	C425.321136,287.583435 423.708923,288.640533 422.036316,289.737213 
	C423.274170,290.794281 425.718719,290.371399 425.345093,293.226776 
	C423.177612,293.426849 419.924500,294.524231 419.019775,292.714050 
	C416.430969,287.534485 412.065155,289.017883 408.214539,289.013916 
	C322.385834,288.925476 236.557007,288.897034 150.728241,288.928497 
	C137.262802,288.933441 123.824821,288.684753 110.394928,291.044800 
	C105.062859,291.981812 98.859261,294.161316 93.457626,288.891388 
	C91.461250,286.943695 87.949715,288.462708 86.554016,292.144653 
	C78.520508,313.337402 71.598694,334.851685 67.182831,357.116180 
	C64.855453,368.850616 63.192127,380.673279 61.605843,392.538086 
	C60.333794,402.052521 60.782867,411.458740 60.383255,420.907654 
	C60.322739,422.338531 60.037918,424.210815 62.109440,424.508270 
	C63.943775,424.771667 65.292137,423.730194 65.948959,421.981476 
	C66.238869,421.209656 66.510574,420.378693 66.534561,419.567017 
	C67.033646,402.677887 70.716103,386.007935 69.539474,368.973145 
	C68.820122,358.558868 76.444786,351.460297 86.849510,351.340240 
	C93.675812,351.261505 100.530884,351.638031 107.307983,351.317871 
	C121.281639,350.657745 128.032928,363.525452 125.046638,373.969788 
	C123.687080,378.724701 125.739906,382.756805 126.196526,387.127197 
	C127.889221,380.006714 127.017960,372.851105 127.317986,365.746429 
	C127.937355,351.079346 127.422104,336.424011 127.611183,321.766083 
	C127.669449,317.249329 126.160591,314.962982 120.870667,314.958954 
	C116.244621,314.955414 111.285759,314.838715 106.841827,312.650879 
	C114.052231,311.500885 121.070389,310.951599 128.395386,311.229797 
	C140.111465,311.674805 151.915771,311.025543 163.680191,311.629791 
	C166.082413,311.753204 167.714798,310.842621 169.098328,308.830170 
	C170.711227,306.484070 172.743149,306.922211 174.573456,308.772614 
	C176.494904,310.715149 175.746002,312.310059 173.889313,313.777466 
	C173.310501,314.234955 172.213379,314.203064 172.293060,315.496460 
	C172.866165,315.696777 173.487885,315.891418 174.091660,316.131195 
	C174.764450,316.398315 175.181839,316.858643 175.062057,317.647461 
	C169.965942,319.146515 169.905930,319.198700 166.666550,315.473724 
	C165.474579,314.103088 164.033356,314.319397 162.574020,314.182098 
	C155.233292,313.491486 148.006378,315.280670 140.691910,315.170959 
	C138.186234,315.133362 137.882690,316.742310 137.768433,318.830505 
	C136.957321,333.651367 137.028000,348.490967 137.672256,363.292145 
	C137.938919,369.418610 137.307877,375.637939 138.485855,381.726349 
	C138.651245,377.750641 138.736130,373.783661 138.635010,369.821472 
	C138.354401,358.824921 144.955048,351.776917 155.831512,351.470764 
	C163.487793,351.255249 171.125397,350.930603 178.795761,351.551819 
	C187.376892,352.246796 192.053314,356.124084 194.416870,364.399689 
	C195.678329,368.816406 193.961945,372.982391 194.306335,377.265381 
	C195.090820,387.021393 195.892944,396.774597 197.777863,407.203217 
M533.617126,169.293137 
	C530.229797,168.582916 527.795105,166.802765 527.167358,163.222015 
	C526.682068,160.453979 527.891296,158.350067 530.169800,156.853012 
	C541.180359,149.618881 553.100342,146.266922 566.138733,149.515472 
	C577.888550,152.442993 589.731018,154.960709 601.348999,158.501602 
	C626.784180,166.253708 650.995239,176.750153 674.316345,189.433792 
	C677.834961,191.347443 679.446350,194.272461 679.180725,197.986282 
	C678.922180,201.600952 676.744629,204.115051 673.096619,205.053513 
	C669.047913,206.095047 669.212158,208.058640 671.229858,211.199997 
	C682.306641,228.445282 695.906311,243.349091 712.208984,255.750168 
	C727.719055,267.548279 744.833923,276.279144 763.343262,282.394073 
	C775.579895,286.436707 788.049988,287.308929 800.763794,286.092651 
	C802.396240,285.936493 804.722778,286.041290 804.697388,283.925812 
	C804.641724,279.294556 807.659912,277.304718 811.263733,275.631256 
	C810.710388,274.232697 810.328735,273.141449 809.855774,272.091339 
	C800.320312,250.922577 788.745728,230.884171 775.522156,211.847183 
	C749.264771,174.046066 717.127869,141.953033 679.737488,115.185844 
	C649.378418,93.452225 616.323608,76.775475 581.140869,64.377167 
	C561.104065,57.316219 540.504517,52.356068 519.588440,48.565159 
	C515.133362,47.757710 510.610596,48.233799 506.327240,47.124992 
	C493.692810,43.854408 480.743011,43.912552 467.881744,43.059776 
	C454.072998,42.144180 440.318512,43.090656 426.505280,43.743282 
	C412.473724,44.406223 398.645691,46.139912 384.876556,48.279549 
	C360.183472,52.116680 336.303101,59.142117 312.838196,67.814430 
	C286.132568,77.684471 260.923065,90.440231 237.133301,105.919586 
	C198.850372,130.829269 165.725235,161.344131 138.113632,197.877640 
	C121.186066,220.274857 106.611916,243.996506 94.613426,269.347961 
	C93.050316,272.650635 91.192116,275.650574 95.971802,277.913910 
	C96.661453,278.240479 97.274208,279.611755 97.229836,280.463470 
	C96.933296,286.154846 99.981079,287.262604 104.801270,286.396149 
	C106.082207,286.165894 107.453667,286.448120 108.783897,286.481689 
	C117.937973,286.712555 126.994339,286.522217 135.858307,283.548370 
	C151.189453,278.404816 165.744095,271.984650 179.591248,263.345306 
	C201.263947,249.823547 218.509079,232.318237 232.161621,210.981506 
	C233.029068,209.625839 234.308075,208.363983 233.723495,206.191101 
	C232.963486,205.900330 232.080307,205.499283 231.159912,205.221695 
	C227.915649,204.243210 224.826721,203.409424 224.566467,198.975723 
	C224.317352,194.732010 225.299469,191.525040 229.220322,189.378433 
	C248.387238,178.884796 268.210114,169.881516 288.876373,162.746078 
	C301.930084,158.239059 315.376801,155.072495 328.552826,150.998093 
	C343.434540,146.396240 357.562836,147.388840 371.088470,155.475220 
	C374.277679,157.381912 376.164856,159.648315 375.784912,163.481171 
	C375.390961,167.455933 372.412781,168.446335 369.246399,169.290268 
	C359.111389,171.991562 348.949463,174.599472 338.860748,177.464737 
	C330.828949,179.745834 329.059845,186.194778 334.459503,192.439789 
	C345.526642,205.239578 359.295044,214.541138 373.864563,222.745193 
	C394.937317,234.611206 417.781586,240.872223 441.766846,242.434647 
	C456.354462,243.384888 470.914337,242.051575 485.347198,239.035751 
	C517.975830,232.217804 545.435913,216.187164 568.919312,192.974487 
	C575.277832,186.689285 573.446655,180.150681 564.741211,177.550232 
	C554.715820,174.555511 544.537537,172.072754 533.617126,169.293137 
M528.499939,543.648926 
	C626.996155,543.640869 725.492310,543.633301 823.988525,543.620483 
	C825.987854,543.620239 827.988342,543.589233 829.986267,543.517639 
	C832.527405,543.426697 833.993530,541.926575 834.497498,539.590942 
	C835.830017,533.416382 837.007690,527.208374 838.326111,521.030640 
	C838.920593,518.244751 837.661499,516.883789 835.090881,516.543213 
	C833.614014,516.347473 832.097900,516.419128 830.599487,516.419067 
	C581.941040,516.407654 333.282623,516.400574 84.624191,516.393494 
	C79.457756,516.393372 74.290764,516.443848 69.125099,516.381775 
	C65.817154,516.341980 64.042564,517.189514 65.050072,521.092285 
	C66.333214,526.062805 67.148369,531.152649 68.234100,536.176147 
	C69.847855,543.642761 69.873528,543.644531 77.514137,543.644653 
	C227.509384,543.646912 377.504639,543.647339 528.499939,543.648926 
M712.043152,126.468765 
	C686.436951,104.909439 658.463562,86.996078 628.385254,72.366135 
	C611.459106,64.133354 593.985107,57.310169 576.081970,51.413319 
	C560.100037,46.149265 543.951416,41.674309 527.379150,39.068810 
	C513.597412,36.902046 499.889740,34.052681 485.898804,33.281147 
	C476.940063,32.787113 467.985107,31.515730 459.042297,31.634745 
	C449.423431,31.762754 439.803741,31.457527 430.155396,32.072544 
	C416.767883,32.925915 403.533691,34.885414 390.236023,36.350792 
	C384.172668,37.018967 378.264465,38.994579 372.215027,39.907925 
	C350.541016,43.180286 329.821564,49.900196 309.365997,57.412636 
	C280.492340,68.016678 253.497833,82.325813 227.729202,99.150963 
	C196.104935,119.799408 168.517441,144.965958 143.828537,173.306122 
	C125.749817,194.058533 110.095268,216.642319 96.911903,240.879669 
	C89.980766,253.622437 83.762596,266.703033 77.910019,279.963287 
	C77.126823,281.737762 75.907227,283.904449 77.495552,285.576935 
	C78.928085,287.085388 81.226738,286.890289 83.183533,286.271545 
	C84.967583,285.707428 85.458748,283.932831 86.081841,282.410797 
	C96.471855,257.031219 109.639565,233.119110 125.271545,210.655365 
	C148.623901,177.097107 176.444473,147.657471 208.886017,122.684875 
	C246.616898,93.640709 288.194031,71.930069 333.675873,57.836113 
	C359.457306,49.846935 385.803925,44.120716 412.680725,41.741123 
	C430.866974,40.130970 449.125244,39.273273 467.501831,40.347542 
	C484.423676,41.336773 501.281708,42.449127 517.966431,45.358158 
	C541.281372,49.423183 564.062134,55.515656 586.387634,63.467892 
	C619.550354,75.280342 650.617676,91.256737 679.360107,111.370552 
	C705.729065,129.823395 729.459961,151.445145 750.695740,175.780502 
	C777.981567,207.048904 799.681152,241.752914 816.078491,279.816864 
	C819.246338,287.170380 819.114319,287.227264 827.302612,285.385651 
	C802.449585,222.757355 763.442566,170.577194 712.043152,126.468765 
M813.098877,353.402283 
	C805.483032,353.740356 797.776062,352.525482 790.283386,354.960327 
	C785.088745,356.648346 779.943542,362.908966 780.480469,368.070526 
	C782.094971,383.589264 778.088501,398.623474 776.775818,413.880188 
	C776.035217,422.487305 775.068298,431.055145 775.455017,439.698547 
	C775.592651,442.773254 775.996399,445.699341 780.371033,445.670074 
	C796.855530,445.559723 813.341187,445.605560 829.826355,445.603851 
	C833.087036,445.603516 835.472412,444.475220 835.467346,440.809784 
	C835.459717,435.338318 835.544312,429.843964 835.093201,424.400513 
	C834.107361,412.505463 832.461975,400.655365 831.808594,388.747253 
	C831.545471,383.952606 829.926025,379.298157 830.697998,374.400665 
	C832.850647,360.744202 827.619385,354.252197 813.098877,353.402283 
M137.448929,422.932709 
	C137.414001,428.924591 137.461212,434.918549 137.312103,440.907593 
	C137.228302,444.272797 138.506958,445.688293 141.996857,445.660278 
	C157.976410,445.531952 173.957932,445.645721 189.937363,445.508667 
	C196.338242,445.453766 196.942398,444.698456 197.477112,438.345581 
	C197.588577,437.021393 197.626617,435.682861 197.581909,434.354889 
	C197.078598,419.411377 194.249344,404.701813 193.080185,389.835541 
	C192.572266,383.377106 189.944046,377.162567 192.208893,370.267639 
	C194.145859,364.370880 188.566727,356.824188 182.418442,354.881561 
	C173.601761,352.095764 164.550980,353.159454 155.696426,353.873840 
	C145.064529,354.731506 139.658066,362.714752 141.630249,373.199188 
	C142.069336,375.533417 141.795319,377.804047 141.997299,380.040253 
	C142.501999,385.627441 140.590408,390.853699 140.278000,396.311859 
	C139.786331,404.902008 138.532028,413.448456 137.448929,422.932709 
M84.586876,353.988617 
	C76.313026,356.006256 70.454391,362.289795 71.657761,369.107910 
	C73.877518,381.684753 70.583771,393.880096 69.746002,406.217072 
	C68.946243,417.994324 67.817307,429.731201 68.035896,441.554535 
	C68.089920,444.476105 69.252693,445.812256 72.258850,445.681519 
	C75.417397,445.544159 78.586624,445.655823 81.751190,445.653168 
	C94.909142,445.642090 108.067352,445.671570 121.224861,445.588318 
	C124.760979,445.565948 127.679588,444.955139 127.762672,440.119720 
	C127.985458,427.153778 126.163689,414.365753 125.085503,401.505554 
	C124.174530,390.639740 121.367966,379.952118 122.751793,368.841980 
	C123.638855,361.720184 118.769279,355.644409 111.689430,354.507080 
	C103.002434,353.111542 94.194801,353.224182 84.586876,353.988617 
M222.516846,445.619110 
	C234.998047,445.555817 247.480026,445.385620 259.960083,445.477173 
	C265.675659,445.519104 266.346924,444.897522 266.675629,439.010193 
	C267.496490,424.307892 264.378937,409.945374 263.197113,395.418182 
	C262.487549,386.695648 260.045746,378.172668 261.720886,369.170105 
	C262.913574,362.760345 258.126862,356.606689 251.844177,354.757019 
	C242.875717,352.116638 233.565445,353.144287 224.673950,354.152252 
	C213.003815,355.475250 209.112656,362.750793 211.589081,374.512604 
	C211.825638,375.636200 212.138840,376.884857 211.884872,377.948486 
	C209.633255,387.378784 209.751556,397.065674 208.794510,406.625824 
	C207.756821,416.991547 205.961212,427.346008 206.604568,437.816010 
	C207.054657,445.140594 207.824509,445.656525 215.031494,445.635742 
	C217.196091,445.629486 219.360703,445.623962 222.516846,445.619110 
M645.772339,358.293884 
	C644.319214,359.716400 643.517273,361.497009 642.626892,363.310181 
	C640.265991,368.117920 643.077454,372.866089 642.570007,377.344666 
	C641.809509,384.057556 640.924072,390.797791 640.083069,397.530701 
	C638.335083,411.523193 635.991211,425.423065 636.234985,439.629578 
	C636.320923,444.640106 638.065857,445.799072 642.669922,445.731781 
	C657.990417,445.507904 673.316101,445.637878 688.639832,445.635895 
	C695.846069,445.634949 696.484314,444.828430 696.592346,437.637177 
	C696.692505,430.972809 695.789490,424.405334 695.359985,417.793488 
	C694.553894,405.384918 693.200073,393.043213 691.937317,380.684387 
	C691.588135,377.266785 689.924866,376.324951 686.675720,376.358673 
	C674.185059,376.488342 661.691956,376.423676 649.200317,376.339233 
	C647.689453,376.329010 645.887573,377.209595 644.470947,375.305847 
	C646.023804,374.120514 647.734619,374.676697 649.294617,374.669830 
	C661.786560,374.614838 674.280945,374.482513 686.769653,374.680908 
	C690.686279,374.743103 692.099304,373.096130 692.501160,369.538361 
	C693.212830,363.238129 688.630920,356.410492 681.973389,354.859314 
	C671.966919,352.527924 661.846436,353.348816 651.773926,354.541229 
	C649.598083,354.798767 647.740845,356.056122 645.772339,358.293884 
M537.507019,354.754639 
	C527.621277,352.808136 517.647644,352.720947 507.776794,354.355377 
	C500.333405,355.587830 495.177887,362.227722 496.138367,369.530426 
	C497.901917,382.939453 494.218018,395.913574 493.321014,409.079681 
	C492.640869,419.063019 491.298431,429.040436 491.284210,439.097351 
	C491.281219,441.211121 491.240753,443.418854 492.677246,445.572693 
	C510.566956,445.572693 528.546875,445.549316 546.526611,445.591766 
	C550.266907,445.600586 550.714417,443.354095 550.813354,440.337860 
	C551.289490,425.819946 549.691284,411.441681 548.141052,397.054108 
	C547.234558,388.641174 545.699463,380.248871 546.794983,371.738739 
	C547.766479,364.192261 544.949280,358.611023 537.507019,354.754639 
M407.412415,364.159485 
	C405.375916,358.806854 401.829224,355.148163 395.969757,354.281342 
	C387.729034,353.062225 379.468781,353.275879 371.182281,353.933685 
	C363.145905,354.571625 359.350250,359.591217 356.888550,366.547974 
	C355.822662,369.560059 357.500671,372.042145 357.569885,374.824768 
	C357.870819,386.919647 355.707489,398.821716 354.196747,410.676331 
	C352.910919,420.766388 352.930023,430.777740 352.428680,440.828735 
	C352.259521,444.219910 353.782867,445.696228 357.163483,445.643066 
	C362.818695,445.554108 368.476257,445.615692 374.132812,445.612671 
	C383.948639,445.607391 393.764618,445.627686 403.580292,445.587006 
	C411.566071,445.553894 411.843750,445.266449 411.805298,437.542053 
	C411.784576,433.385651 411.644165,429.229645 411.639862,425.073364 
	C411.620148,406.065094 405.862640,387.370422 408.522125,368.204102 
	C408.668121,367.151947 407.977966,365.983704 407.412415,364.159485 
M763.534729,401.057373 
	C763.387146,399.739807 763.143860,398.424896 763.107605,397.104279 
	C762.875732,388.654022 760.218567,380.304474 761.706909,371.806091 
	C763.245178,363.022888 758.248230,355.164795 749.342651,354.234772 
	C741.762878,353.443268 734.063538,353.529022 726.426941,353.690399 
	C723.701904,353.748016 720.915771,354.947052 718.315674,356.011322 
	C713.491272,357.985870 708.905090,365.664185 710.738342,370.383606 
	C713.689453,377.980591 711.056519,385.293976 710.208557,392.427704 
	C708.430420,407.385437 706.357483,422.274567 706.314941,437.367798 
	C706.294067,444.771942 707.079163,445.596558 714.689087,445.626373 
	C728.855225,445.681854 743.021790,445.641754 757.188171,445.633087 
	C765.170959,445.628174 765.507263,445.161285 765.696716,437.156769 
	C765.976807,425.323273 764.783569,413.597443 763.534729,401.057373 
M835.549133,501.780426 
	C835.196106,492.662415 836.173950,483.548706 834.928406,474.397186 
	C834.246948,469.390106 832.070984,467.974396 827.478333,468.022583 
	C812.505676,468.179688 797.530090,468.215576 782.557434,468.086456 
	C778.709595,468.053284 776.586060,469.344940 776.060486,473.228851 
	C774.693054,483.333374 775.479248,493.473267 775.527161,503.597687 
	C775.538574,506.017883 777.395386,506.950836 779.640808,507.051178 
	C796.265381,507.793854 812.897217,507.812897 829.529419,507.439758 
	C832.607544,507.370697 835.071167,506.189423 835.549133,501.780426 
M68.003365,486.552612 
	C68.015030,491.881927 68.038567,497.211273 68.033875,502.540588 
	C68.031097,505.704590 69.302399,507.646942 72.730949,507.634125 
	C89.551666,507.571259 106.372459,507.522980 123.193077,507.439575 
	C125.623810,507.427521 127.625214,506.456329 127.624771,503.749268 
	C127.623123,493.596924 127.595856,483.440002 127.259506,473.295349 
	C127.170593,470.613281 125.877602,468.130859 122.324646,468.134308 
	C106.003540,468.150177 89.682381,468.094727 73.361237,468.089111 
	C70.063690,468.087952 68.559853,469.947357 68.446396,473.110840 
	C68.297379,477.265930 68.153740,481.421204 68.003365,486.552612 
M494.608978,468.603149 
	C492.253143,469.800171 491.401367,471.856598 491.379425,474.351074 
	C491.297516,483.664124 491.277039,492.977966 491.138367,502.290100 
	C491.087128,505.733002 492.423370,507.697479 496.032990,507.708008 
	C512.498962,507.756104 528.964905,507.822388 545.430847,507.823486 
	C548.820679,507.823730 550.744263,505.982086 550.747986,502.558167 
	C550.758301,493.077515 550.813293,483.592560 550.535522,474.118530 
	C550.446106,471.071136 549.260498,468.095581 545.283264,468.108643 
	C528.654663,468.163269 512.026184,468.256439 494.608978,468.603149 
M450.334137,507.125671 
	C458.825317,507.314880 467.316620,507.498932 475.807617,507.696259 
	C478.547913,507.759918 481.316193,507.106110 481.367310,504.005157 
	C481.542450,493.381531 482.734131,482.704834 480.469910,472.149445 
	C479.970001,469.818939 478.722412,468.210846 476.066498,468.206787 
	C459.738983,468.181824 443.411377,468.117096 427.083984,468.151001 
	C424.511383,468.156342 422.786774,469.334991 422.346649,472.253204 
	C420.821960,482.362579 421.434265,492.521454 421.416840,502.665985 
	C421.411255,505.914917 422.853546,507.361420 426.379089,507.245331 
	C434.035400,506.993225 441.704834,507.140472 450.334137,507.125671 
M137.337082,499.296692 
	C137.368347,507.619232 137.368393,507.636932 145.717148,507.614899 
	C161.366104,507.573547 177.014969,507.481293 192.663910,507.475464 
	C196.415985,507.474060 197.037720,505.013031 197.082916,502.154816 
	C197.232498,492.699127 197.942337,483.279236 196.495331,473.785431 
	C195.854645,469.582001 194.183456,468.204865 190.592117,468.189758 
	C174.760498,468.123260 158.928482,468.157623 143.096680,468.119873 
	C140.392517,468.113434 138.943512,469.052032 138.297516,471.970184 
	C136.357742,480.732727 137.845840,489.564056 137.337082,499.296692 
M731.532898,507.629395 
	C740.846252,507.542969 750.166687,507.209564 759.469727,507.478821 
	C763.841125,507.605286 765.711182,506.091003 765.701660,501.889801 
	C765.682373,493.399261 765.740295,484.907776 765.626343,476.418518 
	C765.535645,469.663055 764.011963,468.209747 757.358276,468.186340 
	C742.708008,468.134796 728.057129,468.172638 713.407410,468.061340 
	C707.898987,468.019501 706.495544,469.007446 706.381897,474.462097 
	C706.198059,483.282501 706.425842,492.114624 706.098755,500.927643 
	C705.917908,505.800659 708.140442,507.567505 712.579224,507.572998 
	C718.568787,507.580475 724.558289,507.608246 731.532898,507.629395 
M696.296082,504.384003 
	C696.257690,493.623077 697.921509,482.819183 695.151184,472.124268 
	C694.508057,469.641479 693.550903,468.213654 690.922485,468.201324 
	C674.765259,468.125580 658.608032,468.014069 642.450684,467.994690 
	C639.400452,467.991028 637.742371,469.494171 637.197571,472.785309 
	C635.632080,482.241089 636.598694,491.729523 636.462402,501.197815 
	C636.386963,506.440125 638.195312,507.928741 643.569641,507.626740 
	C659.546387,506.728851 675.527466,506.862183 691.507019,507.421478 
	C693.601929,507.494812 695.080505,507.027191 696.296082,504.384003 
M387.495300,507.101776 
	C393.643890,507.270599 399.794342,507.391174 405.940430,507.625610 
	C409.858276,507.775024 411.857391,506.167633 411.815399,502.088989 
	C411.724640,493.272034 411.862946,484.451385 411.675995,475.637177 
	C411.540771,469.259338 410.251709,468.143524 403.860535,468.127197 
	C389.384827,468.090240 374.908966,468.088684 360.433167,468.099457 
	C354.204742,468.104095 352.512329,469.719086 352.435822,476.099152 
	C352.334045,484.582733 352.533325,493.070831 352.366608,501.552338 
	C352.271545,506.388214 354.467499,508.149536 359.074951,507.779510 
	C368.200226,507.046722 377.346680,506.932465 387.495300,507.101776 
M55.641346,462.619202 
	C55.597416,460.955902 55.669041,459.280151 55.491756,457.631195 
	C53.631840,440.331787 54.584484,423.002838 56.011612,405.791992 
	C57.343483,389.729919 59.348442,373.753113 58.485996,357.590027 
	C58.344566,354.939453 58.608513,352.268890 58.641129,349.606995 
	C58.672829,347.019562 58.648006,344.431396 58.648006,341.843567 
	C50.490314,368.997498 47.511757,396.718781 46.599232,424.621063 
	C46.177170,437.526672 46.231487,450.488983 47.254360,463.476166 
	C48.465351,478.851837 49.755165,494.170990 51.992058,509.436981 
	C52.642876,513.878601 54.408627,515.150024 58.446373,514.580078 
	C63.701538,513.838257 60.779907,510.202362 60.468349,508.064026 
	C58.315186,493.285767 56.530991,478.476929 55.641346,462.619202 
M847.699402,350.762756 
	C847.569946,348.342651 846.579468,346.237946 845.544312,343.805573 
	C844.043457,348.302094 844.695068,352.487366 844.648804,356.610718 
	C844.526001,367.567902 843.537476,378.568542 845.473267,389.460327 
	C847.332397,399.920319 848.116638,410.541870 848.260254,421.063232 
	C848.457397,435.506653 848.785095,449.978668 847.518127,464.466095 
	C846.230164,479.194244 845.023804,493.900635 842.667297,508.504913 
	C842.320618,510.653168 840.745728,513.816040 844.707581,514.535522 
	C848.225769,515.174438 850.425232,514.390808 851.195618,509.963654 
	C854.051819,493.548859 855.846497,476.980591 856.419800,460.412048 
	C857.171692,438.683197 857.151672,416.932953 854.598511,395.182922 
	C852.878113,380.527588 850.509888,366.043732 847.699402,350.762756 
M421.366425,458.115967 
	C421.132935,461.523376 422.454651,463.605652 426.124969,463.606445 
	C442.935699,463.610016 459.746460,463.604950 476.557190,463.591278 
	C479.776367,463.588654 481.519501,461.998047 481.592896,458.724457 
	C481.630188,457.060730 481.540955,455.389282 481.666962,453.733368 
	C481.975037,449.686188 480.232788,448.080078 476.124573,448.110016 
	C459.647797,448.230103 443.169037,448.206268 426.692108,448.085815 
	C422.942352,448.058441 420.964844,449.240173 421.334381,453.247986 
	C421.456146,454.568390 421.355103,455.909332 421.366425,458.115967 
M244.500092,448.146790 
	C234.030502,448.141663 223.560745,448.098694 213.091400,448.146606 
	C207.418991,448.172546 206.392609,449.275909 206.400192,454.866638 
	C206.410370,462.364288 207.330399,463.624634 213.214081,463.641998 
	C227.672134,463.684662 242.130432,463.654755 256.588623,463.651123 
	C267.226715,463.648438 267.118866,463.650604 266.699585,452.880280 
	C266.568115,449.503204 265.305237,448.007019 261.951263,448.058777 
	C256.468353,448.143402 250.983765,448.120178 244.500092,448.146790 
M675.499268,463.639160 
	C680.824036,463.641785 686.148743,463.648651 691.473511,463.644501 
	C693.152100,463.643188 695.153442,463.772491 695.849731,461.969574 
	C697.342590,458.104034 696.980286,454.018707 695.528809,450.297272 
	C694.412842,447.436249 691.273071,448.203430 688.872437,448.193054 
	C674.562500,448.131256 660.252136,448.177429 645.941956,448.157623 
	C636.115479,448.144012 636.297607,448.122467 636.295105,457.915253 
	C636.294006,462.193726 637.651733,463.829315 642.053589,463.732208 
	C652.864380,463.493774 663.683716,463.644379 675.499268,463.639160 
M835.395081,450.135406 
	C834.146973,447.641693 831.781799,448.098389 829.691711,448.095856 
	C813.704834,448.076538 797.717407,448.189423 781.731323,448.088501 
	C777.477478,448.061676 775.178528,449.194458 775.343750,454.012512 
	C775.632446,462.426636 776.154785,463.557068 781.943726,463.586761 
	C795.599060,463.656799 809.255249,463.668152 822.910706,463.619629 
	C835.917419,463.573425 835.615540,465.462402 835.395081,450.135406 
M87.500740,448.159424 
	C84.008499,448.141968 80.516167,448.134613 77.024025,448.105042 
	C67.959053,448.028290 67.752853,448.222046 67.645714,457.095612 
	C67.579376,462.590240 68.615791,463.641998 74.371712,463.649719 
	C89.837509,463.670502 105.303398,463.669281 120.769180,463.643433 
	C127.076668,463.632874 127.664459,462.917389 127.672813,455.708801 
	C127.680550,449.034668 126.949425,448.136658 120.928131,448.116638 
	C110.119049,448.080688 99.309647,448.142029 87.500740,448.159424 
M494.311707,463.450043 
	C509.805542,463.517700 525.299377,463.629730 540.793213,463.638092 
	C551.950867,463.644104 550.486145,464.750519 550.799316,453.215668 
	C550.897339,449.608551 549.551819,447.996155 545.913025,448.028503 
	C529.086548,448.178253 512.259521,448.261444 495.432495,448.343628 
	C494.063293,448.350311 492.808807,448.322876 491.954834,449.710175 
	C490.449707,452.155304 491.398224,460.870514 494.311707,463.450043 
M746.496460,463.619659 
	C750.992188,463.623505 755.488708,463.577087 759.983398,463.646088 
	C763.972839,463.707336 765.816833,461.815491 765.669434,457.851929 
	C765.601440,456.022766 765.602966,454.188324 765.648804,452.358185 
	C765.721802,449.445892 764.359070,448.094910 761.434753,448.098358 
	C744.451782,448.118408 727.468872,448.102875 710.485901,448.091309 
	C707.630310,448.089355 706.141174,449.401215 706.216370,452.343231 
	C706.258911,454.007050 706.399170,455.691925 706.207947,457.333801 
	C705.641907,462.192627 707.829773,463.773010 712.531067,463.680237 
	C723.516113,463.463470 734.508423,463.616302 746.496460,463.619659 
M165.500015,448.206635 
	C158.668488,448.199036 151.836731,448.154022 145.005478,448.193787 
	C137.243179,448.238953 137.229797,448.285614 137.338486,456.033295 
	C137.345490,456.533051 137.388443,457.034485 137.361435,457.532227 
	C137.118576,462.009827 139.186096,463.698456 143.680008,463.612732 
	C154.006104,463.415771 164.339203,463.586884 174.669464,463.607391 
	C179.001663,463.615967 183.333878,463.622742 187.666077,463.628174 
	C197.156860,463.640106 197.732040,462.870056 197.163666,453.240601 
	C196.951904,449.652771 195.560715,448.153687 191.992477,448.191071 
	C183.495880,448.280182 174.997620,448.210480 165.500015,448.206635 
M389.499817,448.202240 
	C379.028076,448.186066 368.553772,448.299469 358.085815,448.091705 
	C353.722321,448.005127 351.947784,449.714478 352.376648,453.982208 
	C352.509003,455.299469 352.387360,456.640411 352.426422,457.969177 
	C352.537720,461.755920 354.225372,463.684753 358.292053,463.659302 
	C374.082031,463.560333 389.873322,463.579773 405.663574,463.664612 
	C410.099335,463.688446 412.135223,461.781097 411.813721,457.331573 
	C411.706146,455.842865 411.698669,454.336060 411.788177,452.846100 
	C411.997772,449.357544 410.255188,448.126740 406.954285,448.187897 
	C401.471222,448.289551 395.984711,448.207611 389.499817,448.202240 
M62.410141,324.796478 
	C57.824741,338.408234 61.895756,352.349579 60.660175,366.109100 
	C66.059341,340.158051 73.122597,314.731323 82.969589,289.768280 
	C78.268822,288.680298 74.407257,287.301361 72.742592,292.665802 
	C69.487511,303.155426 65.113045,313.280396 62.410141,324.796478 
M72.774704,509.632660 
	C66.516884,509.186035 64.605721,507.553223 65.296265,500.631409 
	C66.431404,489.253082 64.083618,477.714417 67.645828,466.226440 
	C60.291027,466.431793 61.332260,460.568634 59.788052,456.494049 
	C59.414867,457.593323 59.338081,458.564178 59.426361,459.519836 
	C60.783516,474.210999 61.172127,489.001160 64.156693,503.525146 
	C65.625320,510.671997 65.493446,510.653168 72.950165,510.649384 
	C91.441505,510.640015 109.932869,510.677246 128.424225,510.694427 
	C131.987701,510.697754 135.551178,510.694946 139.114655,510.694946 
	C136.067307,508.818970 134.883789,506.317871 134.890671,503.325684 
	C134.915878,492.359314 133.805435,481.331207 136.104614,470.471710 
	C136.679031,467.758636 136.460983,466.275177 133.362076,466.139374 
	C130.533417,466.015320 128.957382,466.721710 129.387421,470.088684 
	C130.761505,480.846649 130.314499,491.670593 130.191757,502.474152 
	C130.131470,507.781830 128.141769,510.010162 123.033005,510.018097 
	C106.545670,510.043701 90.058022,509.869415 72.774704,509.632660 
M269.131500,418.970795 
	C269.173431,420.819916 269.049927,423.135742 271.540100,423.125275 
	C274.268890,423.113800 273.482697,420.572235 273.661285,418.888855 
	C273.766052,417.901337 273.699249,416.894958 273.699249,415.897064 
	C273.698730,384.295746 273.734161,352.694305 273.618073,321.093384 
	C273.609680,318.801727 275.229431,314.602356 271.255981,314.726105 
	C267.560760,314.841187 269.122681,318.938354 269.117920,321.293274 
	C269.052765,353.557159 269.112274,385.821289 269.131500,418.970795 
M134.757629,322.656128 
	C134.756821,321.657166 134.861374,320.644440 134.732880,319.662201 
	C134.479370,317.724152 135.614746,314.578461 132.318771,314.721313 
	C129.479401,314.844360 130.406708,317.755157 130.403336,319.585205 
	C130.342651,352.549774 130.319656,385.514496 130.354752,418.479095 
	C130.356659,420.263275 129.405869,423.192749 132.407928,423.188141 
	C135.124832,423.183929 134.715790,420.465240 134.716614,418.494934 
	C134.729980,386.868011 134.738541,355.241058 134.757629,322.656128 
M824.000000,299.639191 
	C831.243164,319.059143 836.573547,339.035522 841.482361,359.246521 
	C842.815308,348.593109 843.785156,337.842987 841.693848,327.384277 
	C839.453491,316.179962 835.108459,305.473938 831.247009,294.691010 
	C829.102600,288.702881 827.777344,288.036774 821.132507,289.946289 
	C821.120789,293.171082 822.845703,295.926300 824.000000,299.639191 
M419.702118,474.854431 
	C419.537537,472.252838 421.506165,469.779724 420.244507,467.127441 
	C414.447876,465.605804 412.841370,466.220734 413.486298,470.452087 
	C415.026642,480.558228 413.618988,490.715546 414.517944,500.776031 
	C414.994507,506.109619 414.167999,509.597626 408.373260,510.304810 
	C413.362610,510.304810 418.351990,510.304810 423.341339,510.304810 
	C419.855530,508.924500 419.434448,506.276215 419.476868,503.198364 
	C419.602844,494.058563 419.616669,484.917175 419.702118,474.854431 
M767.144470,468.685059 
	C768.685486,479.222473 769.137329,489.763763 768.371399,500.428619 
	C767.755554,509.004181 767.496399,509.762604 758.906128,510.065399 
	C755.248596,510.194336 751.582947,510.094086 747.920959,510.094727 
	C740.514771,510.096039 733.108582,510.095154 725.702332,510.095154 
	C725.705566,510.134674 725.708740,510.174225 725.711914,510.213745 
	C742.058533,510.213745 758.405212,510.213745 775.041199,510.213745 
	C773.888306,507.408783 773.059937,505.048065 773.013916,502.548553 
	C772.821167,492.076813 772.596130,481.597961 773.921875,471.173431 
	C774.148010,469.395691 775.302551,467.331421 772.867310,466.470123 
	C770.848083,465.755951 768.553528,465.528992 767.144470,468.685059 
M204.536530,493.584839 
	C205.165619,485.981384 203.655838,478.300018 205.522308,470.720917 
	C206.080032,468.456177 205.523041,466.262970 202.392334,466.289368 
	C199.505005,466.313690 197.939575,467.710541 198.465576,470.676880 
	C200.371506,481.424713 198.841858,492.253571 199.339462,503.031158 
	C199.484406,506.170441 198.778809,508.815308 195.692047,510.429596 
	C200.605606,510.429596 205.519150,510.429596 210.432693,510.429596 
	C204.797241,509.723511 203.861832,506.221619 204.499664,501.418701 
	C204.803482,499.130920 204.532120,496.766754 204.536530,493.584839 
M703.665344,486.710388 
	C702.963074,481.048920 703.965393,475.493958 704.579651,469.897827 
	C704.928162,466.722687 702.586731,465.954407 699.977295,466.173065 
	C696.971436,466.424957 697.033447,468.359528 698.012695,470.481689 
	C698.687378,471.943848 698.385132,473.415039 698.388916,474.899719 
	C698.411133,483.725647 698.167969,492.565765 698.607239,501.371490 
	C698.832703,505.889984 698.656006,509.421906 693.380981,510.306702 
	C698.350464,510.306702 703.319946,510.306702 708.289429,510.306702 
	C704.609924,508.845154 703.531311,506.196045 703.609985,502.652405 
	C703.720886,497.658142 703.655579,492.659912 703.665344,486.710388 
M56.999119,535.650330 
	C57.475430,537.578857 57.810963,539.556274 58.459957,541.424805 
	C59.521072,544.479858 62.231281,543.565125 64.419647,543.519653 
	C66.730957,543.471558 67.026772,541.708801 66.647713,539.938416 
	C65.157646,532.979065 63.654633,526.020142 61.977947,519.104309 
	C61.244850,516.080566 58.654762,516.248962 56.293148,516.574646 
	C53.801582,516.918274 53.696648,518.710083 54.072533,520.703003 
	C54.962505,525.421387 55.834644,530.143066 56.999119,535.650330 
M843.175476,516.578491 
	C841.376709,517.246521 840.670288,518.789062 840.496399,520.462158 
	C839.859375,526.589233 838.177673,532.490906 836.795044,538.457397 
	C836.324280,540.489075 835.814575,542.595398 838.541077,543.306946 
	C841.087463,543.971558 844.192200,543.935974 844.892151,541.051636 
	C846.815857,533.124634 849.195801,525.217224 849.333801,516.455200 
	C847.191528,516.455200 845.558472,516.455200 843.175476,516.578491 
M204.647873,434.672974 
	C204.630295,432.841522 204.630173,431.009674 204.589172,429.178741 
	C204.560730,427.908234 204.155106,426.785980 202.691345,426.711853 
	C201.263504,426.639557 200.014481,427.219604 199.608978,428.708130 
	C199.351974,429.651581 199.364487,430.685303 199.362686,431.678772 
	C199.346603,440.503448 199.325287,449.328308 199.378174,458.152679 
	C199.389526,460.046326 198.807098,462.787781 201.614822,462.900604 
	C204.598419,463.020538 204.556213,460.290039 204.570923,458.103027 
	C204.621307,450.610596 204.625763,443.117859 204.647873,434.672974 
M839.396179,465.707703 
	C835.966553,465.773712 835.855835,467.898254 836.416870,470.473633 
	C838.207825,478.694397 837.211365,487.039093 837.447815,495.326508 
	C837.535156,498.388580 837.144653,501.460449 838.619385,504.868652 
	C841.667480,493.910339 844.317932,462.697815 842.733337,457.823364 
	C841.563293,460.260529 843.260376,463.687012 839.396179,465.707703 
M414.449341,431.171478 
	C414.424316,440.498505 414.383179,449.825531 414.389191,459.152557 
	C414.390289,460.821594 414.358826,462.730011 416.787323,462.729858 
	C418.772400,462.729736 419.278442,461.120148 419.300323,459.602203 
	C419.439392,449.965912 419.500916,440.328156 419.514648,430.690796 
	C419.516846,429.159454 419.094727,427.536926 417.177887,427.384033 
	C415.194885,427.225922 414.791870,428.803558 414.449341,431.171478 
M703.665283,454.939697 
	C703.655212,447.132507 703.690613,439.324768 703.601624,431.518494 
	C703.580750,429.686066 704.389038,426.870209 701.501038,426.762665 
	C698.743042,426.659943 699.009705,429.367737 698.956360,431.304596 
	C698.732605,439.430389 698.422302,447.559113 698.483215,455.684204 
	C698.501587,458.130463 696.716858,462.451385 700.971558,462.509369 
	C705.268005,462.567932 702.908569,458.165436 703.665283,454.939697 
M134.739761,433.758026 
	C134.748367,432.763397 134.802567,431.766602 134.755524,430.774628 
	C134.672607,429.026245 135.192062,426.655518 132.452515,426.695679 
	C129.580414,426.737762 130.409790,429.262756 130.397400,430.884491 
	C130.326462,440.165375 130.349045,449.447388 130.417358,458.728455 
	C130.428757,460.275787 130.000549,462.517456 132.402954,462.595886 
	C135.212952,462.687653 134.670959,460.225281 134.687042,458.544556 
	C134.763275,450.590271 134.729996,442.634949 134.739761,433.758026 
M488.068176,427.992554 
	C484.486542,426.066864 484.479340,428.826508 484.441681,430.960541 
	C484.277588,440.260468 484.237823,449.562805 484.194031,458.864410 
	C484.186096,460.546265 484.263641,462.597931 486.565948,462.462250 
	C488.843567,462.327972 488.628174,460.203827 488.621460,458.575409 
	C488.580261,448.602814 488.493835,438.630402 488.068176,427.992554 
M768.538696,447.717834 
	C768.509460,451.204224 768.441101,454.690887 768.467224,458.176849 
	C768.480713,459.965179 768.222717,462.456512 770.705383,462.401367 
	C773.137817,462.347351 772.868347,459.799011 772.878296,458.049683 
	C772.930115,448.898285 772.903015,439.746277 772.854919,430.594696 
	C772.846436,428.979919 773.076050,426.733368 770.809326,426.720001 
	C768.292786,426.705200 768.422974,429.074188 768.409607,430.867645 
	C768.369873,436.192261 768.428284,441.517609 768.538696,447.717834 
M65.644890,450.417725 
	C66.161743,443.703247 64.592285,436.997192 65.606979,430.267548 
	C65.854134,428.628326 65.741531,426.574860 63.443466,426.491028 
	C61.125927,426.406372 60.591408,428.231598 60.347824,430.239441 
	C60.077084,432.471100 61.683140,434.664520 61.156906,436.545776 
	C58.705685,445.308746 62.732574,453.033600 64.194267,462.077484 
	C66.246284,458.017456 65.425423,454.634918 65.644890,450.417725 
M842.240662,447.815094 
	C842.360718,445.503479 842.576477,443.191376 842.564331,440.880432 
	C842.557251,439.525360 842.180176,438.163940 840.367615,438.129761 
	C838.548218,438.095459 837.487488,439.060547 837.472412,440.824829 
	C837.413574,447.711945 837.448425,454.599915 837.448425,462.709991 
	C841.729614,457.873169 840.209045,452.753540 842.240662,447.815094 
M556.652588,455.054901 
	C557.389832,450.168549 558.872009,445.369263 558.467468,440.350189 
	C558.356628,438.974823 557.840576,437.710388 556.248779,437.443268 
	C554.849548,437.208496 553.809937,438.051697 553.745667,439.275269 
	C553.365051,446.516235 552.859619,453.778625 554.818481,460.963776 
	C555.397827,459.254211 555.977234,457.544647 556.652588,455.054901 
M632.290649,459.426788 
	C632.628174,460.130096 632.965698,460.833405 633.303162,461.536713 
	C634.845276,454.470520 634.475952,447.482269 634.047729,440.504181 
	C633.955139,438.995392 633.348145,437.319733 631.368347,437.624451 
	C629.458984,437.918335 629.589844,439.692291 629.428162,441.183075 
	C628.765503,447.291687 630.753601,452.989899 632.290649,459.426788 
M269.139069,446.564697 
	C269.505524,450.943817 268.345734,455.451630 269.725952,461.236877 
	C273.033630,453.763916 274.223236,447.535431 273.626038,440.989532 
	C273.496887,439.574005 273.909760,437.627319 271.711273,437.590668 
	C269.469574,437.553253 269.223755,439.398163 269.157623,441.135498 
	C269.100769,442.630402 269.114227,444.128021 269.139069,446.564697 
M345.561066,440.325256 
	C344.321899,447.356476 346.756805,453.892639 348.254578,460.587006 
	C350.510620,453.863312 349.493347,446.961304 349.618134,440.136810 
	C349.640533,438.912506 349.251678,437.741943 347.832001,437.566162 
	C346.418854,437.391174 345.762604,438.313782 345.561066,440.325256 
M841.284851,289.432312 
	C839.634216,289.192932 837.980835,288.943817 836.730469,290.865723 
	C837.648560,296.252136 840.067688,301.261017 842.146484,306.427216 
	C841.984009,300.874847 843.699402,295.340881 841.284851,289.432312 
M63.368137,301.385071 
	C63.813988,297.531311 67.083405,294.393280 66.340950,289.850555 
	C64.170868,289.988892 61.211979,287.737000 60.629337,291.412598 
	C60.006466,295.341949 59.788021,299.497498 61.019695,303.429382 
	C62.323421,303.434052 62.595581,302.577698 63.368137,301.385071 
M602.187866,513.146057 
	C591.954834,513.146057 581.721802,513.146057 571.488708,513.146057 
	C583.511108,514.687256 595.520447,515.107300 607.510254,513.174011 
	C606.028015,513.174011 604.545776,513.174011 602.187866,513.146057 
M840.452576,434.580414 
	C844.286682,433.334167 842.759949,430.172333 842.250488,428.040375 
	C841.674744,425.631226 839.117004,425.899292 838.193481,427.690460 
	C837.000610,430.003967 835.848389,433.028320 840.452576,434.580414 
M50.369530,358.368591 
	C50.282803,359.503937 50.196079,360.639252 50.109352,361.774597 
	C50.263092,361.795685 50.416828,361.816742 50.570568,361.837830 
	C52.857666,351.805908 55.144764,341.773956 57.431858,331.742035 
	C53.977589,340.091675 52.408962,348.900146 50.369530,358.368591 
M553.461304,432.889465 
	C554.040771,434.839020 555.403870,435.162964 556.900879,434.172455 
	C559.043396,432.754822 557.930603,430.555725 557.779663,428.672943 
	C557.680054,427.430725 556.871460,426.318634 555.494934,426.603943 
	C553.676941,426.980743 553.642578,428.717590 553.441467,430.183807 
	C553.351990,430.836060 553.408569,431.508301 553.461304,432.889465 
M633.437317,427.472565 
	C629.756165,425.561798 629.823059,428.630310 629.497192,430.651031 
	C629.220947,432.363922 629.117798,434.697754 631.838501,434.439056 
	C634.429626,434.192688 634.585999,432.086334 634.196289,429.971771 
	C634.078552,429.332886 633.903076,428.704651 633.437317,427.472565 
M270.588501,426.795654 
	C268.667938,428.489044 269.286987,430.689392 269.473450,432.760010 
	C269.550171,433.611572 270.230560,434.178528 271.112000,434.373779 
	C272.025024,434.576050 273.054047,434.223083 273.137939,433.457306 
	C273.411682,430.958160 275.116974,427.922058 270.588501,426.795654 
M91.762909,286.566864 
	C93.789581,286.729065 95.367249,286.395294 95.381073,283.810944 
	C95.389206,282.291138 95.509918,280.800842 93.975853,279.904419 
	C92.913849,279.283844 91.822975,279.704620 91.542480,280.694305 
	C91.012032,282.566010 88.200775,284.388397 91.762909,286.566864 
M346.951721,426.846985 
	C345.461182,428.423126 345.476318,430.407867 345.530945,432.366272 
	C345.560913,433.441803 346.184174,434.202148 347.295685,434.405182 
	C348.223633,434.574707 349.179077,434.086670 349.243073,433.325714 
	C349.442383,430.956512 351.233978,428.082886 346.951721,426.846985 
M44.961494,404.221741 
	C44.782154,404.002899 45.238426,403.137421 44.374878,403.637115 
	C44.286007,403.688599 44.305870,403.947876 44.295387,404.112030 
	C43.690159,413.590179 42.689968,423.056152 43.513863,432.581482 
	C43.992939,423.338654 44.472012,414.095795 44.961494,404.221741 
M808.153931,284.624603 
	C809.333496,287.250214 811.399475,285.792664 813.716492,286.210938 
	C812.504517,283.640564 812.887451,280.569763 810.103027,280.217285 
	C807.938599,279.943268 808.114380,282.340973 808.153931,284.624603 
M852.904053,520.033630 
	C852.859680,519.164795 852.815308,518.296021 852.770935,517.427185 
	C852.643066,517.427734 852.515137,517.428284 852.387268,517.428833 
	C851.335693,523.176575 850.284119,528.924316 849.232605,534.672058 
	C849.508179,534.721619 849.783752,534.771179 850.059326,534.820740 
	C850.984802,530.134033 851.910339,525.447266 852.904053,520.033630 
M44.897095,469.655182 
	C44.802044,469.189636 44.706993,468.724121 44.611938,468.258575 
	C44.637089,472.215118 43.715542,476.228149 45.281395,481.096527 
	C46.037632,476.778778 44.983486,473.574066 44.897095,469.655182 
z"/>
<path fill="#000000" opacity="1.000000" stroke="none" 
	d="
M473.535950,285.287659 
	C474.303345,288.054504 476.092255,290.560852 474.143677,293.063080 
	C471.662292,293.361572 472.665558,290.491425 470.698334,290.204590 
	C469.358978,292.518097 467.218445,294.841461 464.596649,292.515778 
	C462.271759,290.453430 462.898438,286.995300 463.381165,284.088135 
	C463.583954,282.866730 465.299347,281.975311 466.073578,282.949432 
	C468.110596,285.512451 471.121582,283.710266 473.535950,285.287659 
z"/>
<path fill="#000000" opacity="1.000000" stroke="none" 
	d="
M470.752869,310.762543 
	C473.009186,313.076111 472.378326,315.400238 472.042297,317.727051 
	C469.814972,317.848999 470.626312,315.281738 468.574982,315.283356 
	C467.290283,317.017487 465.125977,319.458862 462.861786,317.626251 
	C459.662903,315.037048 462.355957,311.333252 461.735687,307.441193 
	C465.164825,308.879822 467.155243,311.778870 470.752869,310.762543 
z"/>
<path fill="#000000" opacity="1.000000" stroke="none" 
	d="
M743.115723,309.950562 
	C746.727661,310.540131 750.941223,309.670532 753.654480,312.903931 
	C755.004150,314.512451 755.408691,316.532318 753.153564,318.055878 
	C750.893433,318.057922 751.998047,314.908356 749.930481,314.755188 
	C747.853149,314.925873 749.088257,317.704071 747.610413,318.047150 
	C745.657288,318.500580 743.370361,318.627991 742.996765,315.812195 
	C742.758789,314.018219 743.017395,312.158386 743.115723,309.950562 
z"/>
<path fill="#000000" opacity="1.000000" stroke="none" 
	d="
M444.520203,306.242432 
	C447.185822,305.078918 450.281616,306.292175 450.603455,307.944946 
	C451.153870,310.771362 452.566010,314.270752 450.829926,316.853333 
	C449.021790,319.542969 446.253265,319.220398 444.121521,316.782410 
	C444.741974,314.303162 447.682892,316.606476 448.127350,313.831390 
	C443.430054,313.256622 442.285706,310.618530 444.520203,306.242432 
z"/>
<path fill="#000000" opacity="1.000000" stroke="none" 
	d="
M191.430679,316.250549 
	C190.474304,318.664459 188.527786,317.610229 186.892166,318.187256 
	C185.208878,314.782532 185.576874,311.561890 187.177429,307.282379 
	C189.175552,312.387268 195.725601,308.229706 197.003006,313.704651 
	C197.327881,315.097046 197.740250,316.692566 195.927170,317.514221 
	C194.019897,317.049500 195.208710,314.654755 193.770981,314.014343 
	C192.506073,314.214783 191.996033,315.063843 191.430679,316.250549 
z"/>
<path fill="#000000" opacity="1.000000" stroke="none" 
	d="
M725.901978,309.101196 
	C728.181274,307.182190 730.453918,306.701538 731.870361,309.412140 
	C733.401733,312.342651 731.264526,313.942566 728.805115,315.121704 
	C729.546265,316.469208 731.950684,315.413544 732.044312,317.790833 
	C728.558105,318.900726 725.253479,318.681000 721.548706,316.721710 
	C723.742126,314.423615 727.702026,313.359985 725.901978,309.101196 
z"/>
<path fill="#000000" opacity="1.000000" stroke="none" 
	d="
M324.896606,311.637329 
	C325.025330,310.306915 324.742004,309.205109 326.370514,308.559174 
	C327.427002,309.944672 328.523895,311.272461 331.017548,310.990051 
	C335.568085,310.474609 336.665558,312.533600 334.993805,317.434906 
	C332.959229,317.338776 334.082764,314.691498 332.112732,314.214111 
	C328.524475,318.250885 324.677155,321.911560 324.896606,311.637329 
z"/>
<path fill="#000000" opacity="1.000000" stroke="none" 
	d="
M580.453979,314.710419 
	C579.023926,312.751556 577.286865,311.125275 579.249207,308.808594 
	C580.498596,307.333557 582.036011,307.131805 583.737122,307.771179 
	C586.520386,308.817200 586.475403,311.220062 586.391235,313.576904 
	C586.305481,315.977692 584.882141,317.926483 582.841736,318.450592 
	C579.686584,319.260925 581.146240,316.299072 580.453979,314.710419 
z"/>
<path fill="#000000" opacity="1.000000" stroke="none" 
	d="
M599.509766,309.871277 
	C600.477417,310.342133 601.308655,310.830627 602.012451,310.688446 
	C607.531128,309.573730 607.683594,312.762024 607.137085,316.866974 
	C605.120178,317.113586 605.826294,314.074280 604.192261,314.462006 
	C602.709351,314.579071 602.496643,315.604523 602.135803,316.522736 
	C601.487183,318.173401 600.023743,317.906891 598.754272,317.791992 
	C597.055359,317.638184 596.758179,316.301178 596.723022,314.898529 
	C596.681702,313.248260 596.432922,311.549561 596.731812,309.957855 
	C597.107788,307.956146 598.205261,307.993500 599.509766,309.871277 
z"/>
<path fill="#000000" opacity="1.000000" stroke="none" 
	d="
M714.786621,310.712891 
	C713.045654,309.312866 713.105530,308.244202 715.049622,307.851837 
	C716.638855,307.531158 718.335205,307.444733 719.772217,308.483734 
	C719.581299,312.737640 718.233154,315.519684 715.051758,318.167816 
	C712.164185,315.728455 718.179565,313.233246 714.786621,310.712891 
z"/>
<path fill="#000000" opacity="1.000000" stroke="none" 
	d="
M803.001770,370.001740 
	C796.778564,370.004364 791.054810,370.004364 785.331055,370.004364 
	C785.337036,369.446808 785.343018,368.889282 785.348999,368.331726 
	C798.782166,368.331726 812.215332,368.331726 825.522644,368.331726 
	C823.672729,370.084473 823.672791,370.078064 814.960510,370.022461 
	C811.140869,369.998077 807.320984,370.005890 803.001770,370.001740 
z"/>
<path fill="#000000" opacity="1.000000" stroke="none" 
	d="
M824.444702,374.628113 
	C825.830078,374.741180 826.899719,374.414642 828.093201,375.864410 
	C812.958984,375.864410 798.265503,375.864410 783.572021,375.864410 
	C783.565002,375.452148 783.557983,375.039886 783.550964,374.627625 
	C797.039246,374.627625 810.527588,374.627625 824.444702,374.628113 
z"/>
<path fill="#000000" opacity="1.000000" stroke="none" 
	d="
M159.018600,367.644348 
	C168.733444,367.643616 177.952301,367.643616 187.171158,367.643616 
	C187.170181,368.330444 187.169205,369.017273 187.168228,369.704102 
	C173.611526,370.339386 160.047195,369.925079 146.468491,369.051392 
	C150.402618,367.044708 154.507767,367.953186 159.018600,367.644348 
z"/>
<path fill="#000000" opacity="1.000000" stroke="none" 
	d="
M161.003250,376.392883 
	C155.435638,376.163788 150.318130,376.881012 145.298050,375.057007 
	C159.805069,375.057007 174.312073,375.057007 188.819092,375.057007 
	C188.834259,375.502045 188.849411,375.947083 188.864578,376.392120 
	C179.743851,376.392120 170.623108,376.392120 161.003250,376.392883 
z"/>
<path fill="#000000" opacity="1.000000" stroke="none" 
	d="
M114.736053,367.609680 
	C116.069305,367.607513 117.112534,367.280579 117.819038,368.274536 
	C115.219971,370.360779 82.858002,370.875000 77.342697,367.623566 
	C83.384773,367.623566 89.426849,367.622620 95.468925,367.623810 
	C101.765259,367.625031 108.061584,367.628265 114.736053,367.609680 
z"/>
<path fill="#000000" opacity="1.000000" stroke="none" 
	d="
M109.917526,376.387695 
	C98.078590,376.388885 86.725517,376.388885 75.372444,376.388885 
	C75.377464,375.951324 75.382484,375.513794 75.387505,375.076233 
	C89.795898,375.076233 104.204292,375.076233 119.798866,375.076233 
	C116.062180,377.041840 113.149147,376.084381 109.917526,376.387695 
z"/>
<path fill="#000000" opacity="1.000000" stroke="none" 
	d="
M457.991364,370.019836 
	C449.044434,370.017487 440.595734,370.017487 432.147064,370.017487 
	C432.167419,369.385193 432.187744,368.752899 432.208099,368.120605 
	C445.710449,368.120605 459.212799,368.120605 472.715149,368.120605 
	C468.160583,370.952087 463.247955,369.713226 457.991364,370.019836 
z"/>
<path fill="#000000" opacity="1.000000" stroke="none" 
	d="
M475.924011,376.114624 
	C460.625824,376.193604 445.379089,376.193604 430.130341,376.193604 
	C430.103485,374.612976 431.073151,374.704803 431.819611,374.701447 
	C445.639221,374.639069 459.458923,374.589844 473.278595,374.600494 
	C474.038300,374.601074 474.797638,375.147034 475.818146,375.658630 
	C476.079163,375.878113 475.975464,376.035614 475.924011,376.114624 
z"/>
<path fill="#000000" opacity="1.000000" stroke="none" 
	d="
M221.358704,369.936646 
	C219.134171,369.763367 217.205582,370.296631 215.068008,368.178711 
	C229.306763,368.178711 242.894257,368.178711 256.481750,368.178711 
	C256.503204,368.766235 256.524658,369.353790 256.546112,369.941315 
	C244.967178,369.941315 233.388260,369.941315 221.358704,369.936646 
z"/>
<path fill="#000000" opacity="1.000000" stroke="none" 
	d="
M235.999847,376.398773 
	C228.300934,376.398682 221.101868,376.398682 213.902802,376.398682 
	C213.906754,375.986786 213.910706,375.574860 213.914642,375.162964 
	C228.742050,375.162964 243.569473,375.162964 258.396881,375.162964 
	C258.413422,375.574921 258.429993,375.986908 258.446533,376.398865 
	C251.130920,376.398865 243.815308,376.398865 235.999847,376.398773 
z"/>
<path fill="#000000" opacity="1.000000" stroke="none" 
	d="
M650.017822,367.580139 
	C662.864868,367.604980 675.309570,367.604980 687.754333,367.604980 
	C687.752319,368.366669 687.750305,369.128326 687.748352,369.890015 
	C673.888367,370.397675 660.017822,369.791534 645.612549,369.886200 
	C646.667419,366.745361 648.314148,367.608551 650.017822,367.580139 
z"/>
<path fill="#000000" opacity="1.000000" stroke="none" 
	d="
M530.948730,370.014587 
	C520.623657,370.005493 510.789856,370.005493 500.956024,370.005493 
	C500.965088,369.388092 500.974152,368.770660 500.983215,368.153259 
	C514.642090,368.153259 528.300903,368.153259 543.117188,368.153259 
	C538.815247,371.326599 534.955566,369.535950 530.948730,370.014587 
z"/>
<path fill="#000000" opacity="1.000000" stroke="none" 
	d="
M535.646057,374.621643 
	C538.640137,374.920563 541.315796,373.813080 543.753906,375.875854 
	C529.025696,375.875854 514.297485,375.875854 499.569244,375.875854 
	C499.545380,375.458740 499.521515,375.041595 499.497650,374.624481 
	C505.402100,374.624481 511.306549,374.624512 517.210999,374.624512 
	C523.205750,374.624512 529.200439,374.624481 535.646057,374.621643 
z"/>
<path fill="#000000" opacity="1.000000" stroke="none" 
	d="
M395.638550,367.615936 
	C398.337891,367.992279 400.681091,366.902008 402.963196,367.976471 
	C400.469177,370.514740 366.809265,371.007660 362.287048,367.606812 
	C373.254303,367.606812 384.221558,367.606812 395.638550,367.615936 
z"/>
<path fill="#000000" opacity="1.000000" stroke="none" 
	d="
M381.000122,376.400146 
	C374.101318,376.399628 367.702423,376.399628 361.303497,376.399628 
	C361.312073,375.974762 361.320618,375.549927 361.329163,375.125061 
	C375.918732,375.125061 390.508331,375.125061 405.097900,375.125061 
	C405.104828,375.550262 405.111725,375.975494 405.118622,376.400696 
	C397.245758,376.400696 389.372894,376.400696 381.000122,376.400146 
z"/>
<path fill="#000000" opacity="1.000000" stroke="none" 
	d="
M755.695801,369.842957 
	C742.231934,369.968567 729.127502,369.968567 715.693176,369.968567 
	C716.484375,367.142487 717.829651,367.605286 718.890015,367.598694 
	C730.671875,367.525360 742.453979,367.464905 754.236023,367.463745 
	C755.534241,367.463623 758.437073,366.574341 755.695801,369.842957 
z"/>
<path fill="#000000" opacity="1.000000" stroke="none" 
	d="
M726.070435,374.628906 
	C737.241089,374.628723 747.923523,374.628723 758.605896,374.628723 
	C758.600037,375.063446 758.594177,375.498138 758.588318,375.932861 
	C743.811829,375.932861 729.035339,375.932861 714.258850,375.932861 
	C717.945435,374.117859 721.803162,374.873901 726.070435,374.628906 
z"/>
</svg>