<?xml version="1.0" encoding="utf-8"?>
<svg xmlns="http://www.w3.org/2000/svg" viewBox="-420.9438 316.2072 1897.9116 314.7465" width="1897.91px" height="314.747px" preserveAspectRatio="none"><g transform="matrix(0.10000000149011612, 0, 0, -0.10000000149011612, -468.03226405430223, 639.953622817302)" fill="#fffff" stroke="none" id="object-0"><path d="M3364 3216 c-127 -34 -205 -76 -322 -174 -29 -24 -152 -165 -273 -313 -121 -148 -221 -269 -222 -269 -2 0 -66 -11 -143 -25 -76 -14 -145 -25 -152 -25 -7 0 0 17 17 41 58 79 64 156 18 231 -59 96 -169 122 -274 62 -83 -48 -180 -211 -217 -369 l-12 -50 -105 -22 c-57 -12 -114 -22 -126 -23 l-22 0 24 49 c30 58 31 111 6 166 -57 125 -200 148 -309 50 -62 -56 -125 -174 -150 -282 -17 -69 -22 -78 -43 -81 -46 -7 -471 -92 -479 -97 -12 -8 -113 -165 -109 -170 3 -2 122 -18 264 -35 359 -42 326 -34 311 -73 -8 -18 -17 -42 -20 -54 -7 -22 -7 -22 31 -7 21 9 55 29 75 45 20 16 49 29 64 29 37 0 796 -100 802 -105 4 -4 -153 -240 -291 -440 -50 -71 -91 -131 -91 -132 -2 -3 -324 -77 -514 -117 l-193 -42 -39 -60 c-47 -70 -59 -60 125 -94 205 -37 449 -91 463 -102 7 -6 12 -35 12 -73 0 -34 2 -64 5 -67 3 -3 37 4 76 14 46 13 78 17 90 11 10 -4 119 -97 243 -205 124 -109 229 -198 235 -198 5 0 23 17 39 38 l30 37 -89 285 c-49 157 -91 294 -95 306 -4 17 40 65 256 275 144 140 265 254 270 254 21 0 650 -551 650 -568 0 -7 -11 -32 -25 -56 -14 -23 -25 -45 -25 -47 0 -14 81 -1 104 17 l27 21 56 -49 c32 -26 125 -111 208 -188 83 -77 158 -146 167 -153 14 -11 22 -4 67 60 28 39 51 77 51 84 0 6 -50 114 -110 240 -61 126 -109 235 -108 242 2 8 28 22 58 33 75 26 129 66 168 123 26 40 32 58 32 103 0 86 -38 147 -113 178 -97 40 -201 -3 -282 -119 l-20 -29 -63 127 c-34 70 -62 129 -62 130 0 2 26 13 58 25 132 48 222 147 222 245 0 63 -41 140 -91 173 -35 23 -53 28 -103 28 -83 -1 -137 -33 -207 -124 l-27 -34 -46 98 c-38 82 -44 100 -33 115 6 9 92 107 189 217 238 268 280 322 337 433 74 143 95 222 96 357 0 148 1 147 -143 150 -86 2 -124 -2 -198 -21z m249 -55 c22 -9 23 -13 19 -73 -8 -127 -56 -261 -139 -388 -45 -68 -499 -592 -772 -890 -187 -205 -443 -469 -490 -507 l-46 -36 41 44 c22 24 67 76 99 114 67 78 322 367 460 520 49 55 135 152 190 214 55 63 165 187 243 275 79 89 166 190 193 226 47 62 155 257 147 265 -2 2 -33 -31 -70 -73 -36 -42 -106 -120 -154 -172 -49 -52 -215 -237 -369 -410 -154 -173 -332 -371 -395 -440 -64 -69 -190 -208 -280 -310 -90 -102 -210 -235 -265 -295 -55 -61 -181 -201 -280 -313 -98 -111 -182 -202 -186 -202 -11 0 11 109 36 175 61 164 161 318 605 940 86 121 210 296 275 388 64 93 159 219 209 280 50 62 144 178 209 259 138 171 237 268 327 320 60 35 88 42 62 16 -11 -11 -17 -48 -8 -48 16 0 124 57 134 72 32 45 144 72 205 49z m-1564 -599 c27 -50 113 -78 162 -52 27 15 24 -2 -6 -30 -22 -21 -31 -22 -85 -17 l-60 7 -36 -54 c-34 -52 -39 -55 -92 -64 -32 -6 -58 -9 -60 -7 -16 15 78 231 124 284 l29 35 6 -40 c3 -21 11 -49 18 -62z m-730 -170 c29 -53 114 -78 159 -46 29 20 28 3 -1 -25 -25 -23 -69 -29 -122 -17 -27 6 -32 3 -55 -34 -28 -45 -39 -51 -93 -55 l-39 -2 7 35 c11 57 54 158 88 204 l32 43 5 -40 c3 -22 12 -50 19 -63z m1071 -145 l-41 -94 -72 -12 c-67 -10 -75 -14 -115 -59 l-44 -47 52 78 c28 42 48 82 45 87 -3 6 -20 10 -36 10 -25 0 -35 -9 -74 -68 -24 -38 -54 -77 -67 -86 -13 -9 -16 -14 -8 -11 8 4 2 -6 -15 -20 -16 -15 -23 -24 -15 -20 11 6 11 4 -2 -10 -13 -14 -34 -18 -102 -19 -47 -1 -86 1 -86 3 0 2 22 35 49 72 66 90 75 108 59 114 -40 15 -72 -13 -185 -157 l-37 -48 -83 0 c-84 0 -97 6 -65 31 15 13 16 12 3 -3 -13 -17 -8 -18 62 -18 l75 0 36 45 c42 51 42 51 -64 34 -36 -5 -73 -18 -83 -27 -16 -14 -16 -11 3 21 12 20 26 40 31 43 20 12 7 24 -26 24 -40 0 -51 -10 -128 -108 l-48 -62 -82 2 -82 2 82 3 c80 4 82 4 109 40 l27 36 -44 -7 c-24 -4 -63 -10 -87 -13 l-43 -6 18 31 c21 37 18 41 -25 35 -31 -5 -67 -41 -102 -102 -6 -12 -35 -12 -196 -1 -104 7 -190 14 -192 16 -2 1 8 20 21 41 l25 39 123 22 c68 12 358 65 644 118 718 132 819 151 823 148 2 -1 -15 -45 -38 -97z m808 -687 c236 -455 442 -863 442 -878 0 -13 -33 -72 -40 -71 -10 1 -225 239 -228 252 -1 7 6 22 18 32 24 22 26 48 5 65 -13 11 -21 8 -45 -15 -17 -16 -31 -27 -33 -24 -1 2 -14 22 -28 44 -14 22 -33 52 -43 66 -16 26 -16 27 25 78 39 50 40 53 23 72 -26 29 -36 24 -80 -35 l-40 -55 -28 45 c-15 24 -32 44 -37 44 -5 0 -9 7 -9 15 0 8 -4 15 -10 15 -16 0 -12 15 11 41 31 35 79 106 79 117 0 5 -8 16 -18 25 -16 15 -21 12 -71 -49 -54 -65 -71 -76 -71 -49 0 8 -5 15 -12 15 -6 0 -9 3 -6 6 3 3 -7 19 -23 37 -16 17 -29 34 -29 37 0 4 27 42 60 85 61 80 70 104 47 123 -10 9 -23 1 -53 -31 -22 -24 -51 -57 -64 -75 -13 -18 -29 -32 -34 -32 -6 0 -24 20 -39 44 -15 24 -34 50 -42 56 -13 11 -9 20 28 64 112 134 122 162 56 153 l-40 -5 24 31 c13 18 41 56 62 85 21 29 41 50 45 45 4 -4 93 -172 198 -373z m106 335 c-10 -25 16 -83 52 -115 37 -32 87 -40 126 -19 29 16 35 2 10 -24 -19 -18 -34 -22 -87 -22 -62 -1 -65 -2 -92 -37 -15 -21 -31 -37 -35 -38 -8 0 -66 102 -73 132 -5 19 4 37 41 81 45 55 69 73 58 42z m290 -649 c35 -54 123 -85 154 -54 6 6 14 9 17 6 4 -3 -4 -15 -16 -27 -25 -23 -86 -29 -119 -11 -16 8 -24 3 -52 -30 l-32 -41 -34 67 c-34 67 -34 68 -16 98 9 17 29 46 43 65 l26 35 5 -41 c4 -22 14 -52 24 -67z m-2064 -258 c-15 -35 -26 -44 -52 -50 -37 -8 -377 -12 -384 -5 -2 2 33 12 78 21 46 10 137 30 203 46 66 15 132 28 147 29 l27 1 -19 -42z m424 -265 c10 -32 36 -105 57 -163 21 -57 37 -106 35 -108 -5 -4 -130 194 -152 240 -17 37 -17 38 6 63 13 14 26 25 30 25 3 0 14 -26 24 -57z" style="fill: rgb(255, 255, 255);"/><path d="M2994 2805 c-8 -19 4 -65 16 -65 17 0 28 34 19 58 -10 25 -27 29 -35 7z" style="fill: rgb(255, 255, 255);"/><path d="M2937 2733 c-4 -3 -7 -21 -7 -40 0 -26 4 -33 20 -33 15 0 20 7 20 29 0 29 -21 57 -33 44z" style="fill: rgb(255, 255, 255);"/><path d="M2864 2634 c-4 -17 -1 -31 9 -41 18 -18 37 -9 37 17 0 51 -35 69 -46 24z" style="fill: rgb(255, 255, 255);"/><path d="M2807 2584 c-13 -13 -7 -61 8 -74 25 -21 40 2 29 41 -9 32 -24 45 -37 33z" style="fill: rgb(255, 255, 255);"/><path d="M2747 2503 c-12 -11 -7 -60 7 -72 10 -9 16 -8 26 4 10 12 10 21 0 45 -12 30 -21 36 -33 23z" style="fill: rgb(255, 255, 255);"/><path d="M2687 2433 c-12 -11 -7 -60 7 -72 18 -15 40 11 31 38 -7 23 -29 43 -38 34z" style="fill: rgb(255, 255, 255);"/><path d="M2617 2339 c-7 -26 10 -62 26 -56 19 6 15 71 -4 75 -10 2 -19 -6 -22 -19z" style="fill: rgb(255, 255, 255);"/><path d="M3255 1068 c-9 -22 63 -134 78 -119 7 7 -2 29 -31 73 -30 45 -43 58 -47 46z" style="fill: rgb(255, 255, 255);"/><path d="M9377 2770 c-212 -24 -336 -91 -391 -209 -20 -45 -21 -59 -21 -481 l0 -435 23 -47 c13 -26 46 -68 73 -92 98 -88 249 -121 519 -113 191 5 253 17 357 68 74 35 125 92 150 163 16 46 18 93 18 456 0 365 -2 410 -18 457 -39 110 -141 185 -299 217 -95 20 -307 28 -411 16z m264 -371 c15 -6 31 -22 38 -35 15 -34 15 -534 0 -567 -16 -36 -52 -48 -144 -48 -91 0 -129 11 -144 40 -7 12 -11 120 -11 294 0 316 -1 312 85 327 55 9 136 4 176 -11z" style="fill: rgb(255, 255, 255);"/><path d="M4602 2740 c-28 -12 -42 -44 -152 -335 -124 -328 -120 -306 -120 -660 0 -221 3 -304 12 -313 15 -15 345 -17 368 -2 12 7 16 39 18 160 l3 150 165 0 164 0 0 -141 c0 -77 5 -149 10 -160 10 -18 23 -19 194 -19 147 0 186 3 195 14 9 11 11 99 9 338 l-4 323 -31 88 c-79 221 -198 521 -214 540 -17 22 -24 22 -306 24 -163 1 -298 -2 -311 -7z m338 -365 c7 -8 32 -77 55 -153 l43 -137 -140 -3 c-78 -1 -143 -1 -145 2 -5 5 74 260 88 289 12 22 81 24 99 2z" style="fill: rgb(255, 255, 255);"/><path d="M5956 2734 c-14 -14 -16 -87 -16 -653 0 -482 3 -640 12 -649 15 -15 934 -17 958 -2 12 7 16 38 18 152 1 82 -2 149 -7 158 -9 13 -56 16 -288 20 l-278 5 -3 83 -3 82 200 0 c168 0 202 2 215 16 13 12 16 40 16 142 0 70 -5 134 -10 142 -7 12 -47 16 -212 20 l-203 5 -3 73 -3 72 275 0 c335 0 306 -17 306 177 0 120 -2 135 -20 153 -19 19 -33 20 -479 20 -404 0 -461 -2 -475 -16z" style="fill: rgb(255, 255, 255);"/><path d="M7403 2735 l-23 -16 0 -630 c0 -415 4 -637 10 -650 10 -18 23 -19 195 -19 179 0 184 1 199 22 13 18 16 57 16 215 l0 193 139 0 c196 0 185 13 189 -221 2 -110 8 -189 14 -196 8 -10 58 -13 194 -13 l184 0 16 24 c13 22 15 58 12 268 -3 208 -6 249 -22 286 -24 54 -93 116 -150 132 l-45 12 29 24 c48 41 65 102 65 239 -1 103 -4 127 -23 170 -31 68 -85 121 -152 147 -53 22 -70 23 -440 26 -341 3 -388 1 -407 -13z m565 -326 c40 -14 56 -53 50 -129 -6 -89 -20 -100 -130 -100 l-88 0 0 120 0 120 69 0 c37 0 82 -5 99 -11z" style="fill: rgb(255, 255, 255);"/><path d="M10812 2739 c-57 -11 -139 -49 -179 -83 -18 -15 -45 -53 -60 -84 -27 -54 -28 -65 -31 -218 -5 -229 16 -304 102 -363 61 -43 121 -59 308 -85 113 -16 176 -30 186 -40 18 -18 20 -72 3 -89 -9 -9 -92 -13 -297 -17 -238 -4 -286 -7 -294 -20 -15 -24 -13 -283 3 -304 12 -16 41 -17 398 -14 l384 3 67 33 c77 38 130 93 152 160 22 62 30 238 18 349 -23 201 -93 249 -422 293 -129 17 -158 24 -172 41 -22 26 -23 49 -4 75 13 18 30 19 266 22 l251 3 9 25 c6 14 10 84 10 155 0 185 32 169 -347 168 -170 -1 -327 -5 -351 -10z" style="fill: rgb(255, 255, 255);"/><path d="M12265 2741 c-12 -5 -26 -15 -32 -22 -14 -19 -196 -497 -224 -590 -20 -67 -23 -101 -26 -364 -3 -226 -1 -296 9 -315 l14 -25 174 -3 c223 -3 210 -14 210 179 l0 139 165 0 165 0 0 -141 c0 -77 5 -149 10 -160 10 -18 23 -19 193 -19 129 0 187 4 195 12 9 9 12 91 12 308 0 260 -2 306 -19 372 -26 99 -216 597 -236 617 -13 14 -56 16 -303 18 -158 1 -296 -2 -307 -6z m335 -366 c7 -8 32 -77 55 -153 l43 -137 -140 -3 c-78 -1 -143 -1 -145 2 -5 5 73 260 88 289 12 22 81 24 99 2z" style="fill: rgb(255, 255, 255);"/><path d="M13616 2734 c-14 -14 -16 -87 -16 -653 0 -482 3 -640 12 -649 9 -9 139 -12 525 -12 496 0 513 1 523 19 6 13 10 138 10 339 0 296 -1 320 -18 335 -28 25 -343 25 -363 1 -10 -12 -15 -63 -19 -183 l-5 -166 -105 -3 c-58 -2 -115 0 -127 3 l-23 5 0 474 c0 418 -2 476 -16 490 -13 13 -45 16 -189 16 -144 0 -176 -3 -189 -16z" style="fill: rgb(255, 255, 255);"/><path d="M15136 2734 c-14 -14 -16 -87 -16 -653 0 -482 3 -640 12 -649 9 -9 129 -12 479 -12 l468 0 15 22 c13 18 16 51 16 149 0 183 26 168 -305 172 l-270 2 -3 83 -3 82 200 0 c245 0 231 -10 231 160 0 170 14 160 -231 160 l-199 0 0 75 0 75 275 0 275 0 16 24 c13 21 15 49 12 161 -3 122 -5 138 -22 151 -16 12 -98 14 -477 14 -403 0 -459 -2 -473 -16z" style="fill: rgb(255, 255, 255);"/><path d="M16784 2735 c-114 -25 -193 -85 -234 -178 -27 -61 -38 -262 -21 -381 14 -96 41 -148 99 -186 64 -42 117 -57 312 -85 96 -14 178 -29 182 -33 16 -16 19 -67 4 -87 -14 -19 -29 -20 -297 -25 l-283 -5 -13 -25 c-19 -35 -14 -270 6 -293 12 -15 51 -17 375 -17 302 0 371 3 416 16 92 27 155 78 198 159 27 49 27 53 27 240 0 212 -6 244 -61 305 -53 58 -132 88 -296 111 -235 32 -231 31 -245 60 -16 34 -6 68 24 80 13 5 130 9 258 9 221 0 235 1 245 19 5 11 10 82 10 159 0 122 -2 141 -18 155 -17 15 -53 17 -323 16 -213 0 -322 -5 -365 -14z" style="fill: rgb(255, 255, 255);"/><path d="M17912 2738 c-17 -17 -16 -192 1 -206 7 -6 51 -12 97 -14 l85 -3 5 -280 5 -280 120 -3 c104 -2 121 0 132 15 10 12 13 85 13 285 l0 268 83 0 c110 0 117 7 117 118 0 60 -4 85 -16 96 -13 14 -57 16 -323 16 -225 0 -310 -3 -319 -12z" style="fill: rgb(255, 255, 255);"/><path d="M18671 2736 c-8 -9 -10 -122 -9 -397 l3 -384 120 0 120 0 5 195 5 195 27 -51 c36 -68 47 -76 110 -72 52 3 53 4 83 55 17 29 33 52 37 53 4 0 9 -84 10 -187 l3 -188 120 -3 c104 -2 121 0 132 15 10 13 13 104 13 384 0 321 -2 370 -16 383 -12 13 -38 16 -122 16 -59 0 -112 -4 -119 -8 -6 -4 -38 -54 -71 -112 -32 -57 -64 -106 -70 -108 -5 -1 -36 43 -67 100 -32 57 -65 109 -73 116 -23 18 -226 17 -241 -2z" style="fill: rgb(255, 255, 255);"/><path d="M1233 1648 c-42 -48 -339 -452 -357 -488 -12 -25 209 205 342 355 117 131 123 140 101 146 -44 13 -65 9 -86 -13z" style="fill: rgb(255, 255, 255);"/><path d="M1290 1408 c-95 -128 -178 -239 -184 -247 -9 -12 -8 -12 10 -3 36 19 442 457 433 467 -3 2 -23 7 -45 11 l-40 6 -174 -234z" style="fill: rgb(255, 255, 255);"/><path d="M1583 1478 c-181 -242 -214 -288 -208 -288 23 0 399 396 390 410 -3 6 -24 10 -45 10 -38 0 -40 -2 -137 -132z" style="fill: rgb(255, 255, 255);"/><path d="M2440 1147 c-61 -77 -181 -234 -246 -321 -56 -76 7 -21 189 161 97 99 177 184 177 189 0 6 -13 20 -28 31 l-29 21 -63 -81z" style="fill: rgb(255, 255, 255);"/><path d="M2451 873 c-105 -130 -189 -239 -186 -241 6 -7 250 226 349 334 l88 95 -23 25 c-12 13 -26 24 -30 24 -4 0 -93 -107 -198 -237z" style="fill: rgb(255, 255, 255);"/><path d="M2748 948 c-66 -78 -333 -411 -343 -428 -13 -23 174 152 318 297 l127 129 -28 27 -29 28 -45 -53z" style="fill: rgb(255, 255, 255);"/><path d="M4345 957 c-49 -23 -70 -54 -70 -102 0 -62 29 -89 131 -120 46 -14 90 -32 98 -41 33 -32 14 -86 -35 -103 -89 -31 -179 8 -179 78 0 15 -6 21 -21 21 -19 0 -20 -4 -14 -67 8 -75 17 -92 38 -74 11 8 22 9 41 1 38 -14 121 -12 159 4 52 22 72 51 72 108 0 43 -4 53 -31 77 -20 18 -56 34 -103 46 -51 12 -77 24 -91 43 -39 49 2 102 79 102 59 0 91 -21 91 -61 0 -22 5 -29 20 -29 18 0 20 7 20 59 0 63 -14 86 -35 58 -8 -11 -15 -13 -22 -6 -17 17 -115 21 -148 6z" style="fill: rgb(255, 255, 255);"/><path d="M4977 943 c-8 -15 -45 -98 -82 -183 -77 -175 -80 -180 -107 -180 -13 0 -18 -6 -16 -17 5 -25 145 -32 154 -8 8 20 1 27 -26 29 -27 1 -27 4 -11 54 l14 42 94 0 c92 0 94 0 104 -27 17 -46 16 -67 -6 -71 -43 -7 -48 -11 -35 -27 18 -21 162 -21 180 0 13 16 7 20 -34 27 -15 2 -37 48 -97 193 -62 152 -81 191 -97 193 -15 2 -25 -5 -35 -25z m62 -126 c17 -46 31 -86 31 -90 0 -4 -31 -7 -70 -7 -38 0 -70 3 -70 7 0 15 65 173 71 173 4 0 20 -37 38 -83z" style="fill: rgb(255, 255, 255);"/><path d="M6794 956 c-63 -28 -91 -96 -62 -149 17 -34 36 -44 125 -72 90 -28 113 -44 113 -81 0 -50 -68 -83 -147 -71 -44 8 -71 31 -81 71 -5 18 -16 32 -26 34 -17 4 -18 -2 -11 -65 7 -75 17 -92 38 -74 11 8 22 9 41 1 38 -14 121 -12 159 4 53 22 72 51 71 109 -1 67 -34 97 -134 122 -108 26 -138 68 -85 120 19 20 34 25 75 25 57 0 90 -24 90 -65 0 -18 5 -25 20 -25 18 0 20 7 20 59 0 63 -14 86 -35 58 -8 -11 -15 -13 -22 -6 -17 17 -115 21 -149 5z" style="fill: rgb(255, 255, 255);"/><path d="M7640 783 c-45 -104 -84 -189 -85 -191 -1 -1 -13 -5 -25 -7 -29 -6 -34 -11 -27 -30 5 -11 22 -15 71 -15 73 0 96 6 96 26 0 9 -11 14 -30 14 -35 0 -35 1 -14 57 l17 43 91 0 91 0 16 -45 c9 -24 14 -47 11 -50 -3 -3 -18 -5 -34 -5 -23 0 -29 -4 -26 -17 3 -16 15 -18 93 -18 78 0 90 2 93 18 3 13 -3 17 -26 17 -29 0 -31 3 -103 183 -39 100 -76 188 -82 195 -27 35 -44 12 -127 -175z m136 24 l31 -82 -70 -3 c-38 -2 -71 -1 -73 1 -2 2 13 42 33 90 20 48 39 85 42 81 3 -3 20 -42 37 -87z" style="fill: rgb(255, 255, 255);"/><path d="M12462 953 c-5 -10 -42 -92 -82 -183 -81 -184 -84 -190 -112 -190 -13 0 -18 -6 -16 -17 3 -15 15 -18 78 -18 63 0 75 3 78 18 3 12 -3 17 -22 17 -34 0 -36 8 -15 58 l18 42 90 0 91 0 15 -37 c19 -46 13 -63 -20 -63 -20 0 -26 -4 -23 -17 3 -15 16 -19 73 -21 38 -2 80 0 92 3 34 8 28 33 -9 37 -31 3 -32 6 -108 193 -63 156 -80 191 -98 193 -12 2 -24 -4 -30 -15z m57 -134 c17 -44 31 -85 31 -90 0 -5 -31 -9 -70 -9 -38 0 -70 3 -70 7 0 15 65 173 72 173 3 0 20 -36 37 -81z" style="fill: rgb(255, 255, 255);"/><path d="M13644 956 c-97 -43 -98 -165 -2 -199 24 -9 67 -23 96 -32 67 -21 90 -52 72 -95 -24 -58 -152 -68 -197 -15 -13 14 -23 35 -23 46 0 19 -25 37 -37 26 -3 -3 -2 -38 2 -76 5 -48 11 -71 20 -71 7 0 15 5 17 12 3 9 12 9 38 0 45 -16 123 -15 164 2 47 19 66 51 66 109 0 67 -34 98 -131 122 -105 26 -132 63 -88 119 18 22 28 26 75 26 61 0 94 -22 94 -65 0 -18 5 -25 20 -25 18 0 20 7 20 59 0 61 -11 81 -34 62 -8 -7 -23 -7 -47 -1 -46 13 -88 12 -125 -4z" style="fill: rgb(255, 255, 255);"/><path d="M5445 950 c-11 -18 5 -30 41 -30 l34 0 -2 -167 -3 -168 -43 -3 c-34 -3 -43 -7 -40 -20 3 -15 24 -17 197 -20 107 -1 198 1 202 5 4 5 9 39 11 78 2 57 0 70 -13 73 -12 2 -18 -9 -25 -50 -11 -61 -19 -65 -131 -67 -110 -2 -103 -14 -103 175 l0 164 34 0 c31 0 53 19 39 34 -11 10 -191 7 -198 -4z" style="fill: rgb(255, 255, 255);"/><path d="M6080 940 c0 -16 7 -20 30 -20 l30 0 0 -164 c0 -179 1 -176 -62 -176 -23 0 -29 -4 -26 -17 3 -16 22 -18 201 -21 225 -3 206 -10 221 91 7 43 5 47 -13 47 -15 0 -23 -10 -32 -40 -7 -22 -18 -45 -25 -50 -7 -6 -53 -10 -110 -8 l-99 3 0 80 0 80 37 3 c34 3 38 0 52 -33 23 -53 36 -34 36 51 0 60 -3 74 -15 74 -9 0 -18 -12 -21 -30 -6 -28 -10 -30 -50 -30 l-44 0 0 70 0 70 110 0 110 0 14 -34 c31 -74 64 -55 39 22 l-17 52 -183 0 c-176 0 -183 -1 -183 -20z" style="fill: rgb(255, 255, 255);"/><path d="M8165 950 c-11 -17 5 -30 36 -30 l29 0 -2 -167 -3 -168 -32 -3 c-35 -3 -45 -25 -17 -36 9 -3 47 -6 85 -6 55 0 71 3 76 16 7 18 -14 35 -34 27 -21 -8 -24 14 -21 167 l3 145 125 -177 c81 -117 131 -178 142 -178 17 0 18 15 18 189 l0 190 33 3 c20 2 32 8 32 18 0 12 -16 15 -85 15 -69 0 -85 -3 -85 -15 0 -9 11 -16 28 -18 l27 -3 0 -131 c0 -72 -3 -128 -6 -125 -4 4 -52 71 -108 149 l-102 143 -66 3 c-38 2 -69 -1 -73 -8z" style="fill: rgb(255, 255, 255);"/><path d="M8850 940 c0 -16 7 -20 30 -20 l30 0 0 -170 0 -170 -41 0 c-33 0 -40 -3 -37 -17 3 -16 17 -18 133 -18 79 1 145 6 168 14 84 29 136 104 137 199 0 68 -18 111 -64 149 -53 43 -97 53 -235 53 -114 0 -121 -1 -121 -20z m298 -48 c18 -13 39 -37 48 -54 21 -41 20 -131 -3 -171 -24 -42 -93 -75 -163 -79 l-55 -3 -3 169 -2 168 72 -3 c56 -3 81 -9 106 -27z" style="fill: rgb(255, 255, 255);"/><path d="M9772 943 c2 -11 14 -19 31 -21 l27 -3 -2 -167 -3 -167 -33 -3 c-25 -3 -32 -8 -30 -20 3 -14 19 -17 99 -20 83 -2 97 0 103 14 8 21 -8 32 -38 27 -34 -7 -47 18 -44 84 l3 58 42 3 c56 4 86 -17 117 -81 22 -47 23 -53 9 -64 -30 -23 -7 -43 51 -43 64 0 86 7 86 26 0 9 -11 14 -30 14 -27 0 -33 6 -56 58 -14 31 -36 69 -50 83 l-25 27 30 10 c49 17 71 47 71 95 0 85 -49 107 -238 107 -112 0 -123 -2 -120 -17z m283 -43 c8 -7 15 -28 15 -50 0 -56 -24 -72 -112 -74 l-73 -1 -3 59 c-5 89 -4 89 83 84 41 -3 81 -11 90 -18z" style="fill: rgb(255, 255, 255);"/><path d="M10405 950 c-10 -16 4 -30 31 -30 l24 0 0 -170 0 -170 -41 0 c-33 0 -40 -3 -37 -17 3 -16 21 -18 202 -18 l200 0 6 25 c4 14 10 44 14 68 5 36 4 42 -12 42 -12 0 -25 -16 -39 -50 l-22 -51 -103 3 -103 3 -3 83 -3 83 43 -3 c34 -2 44 -7 46 -23 5 -26 22 -46 33 -39 5 3 9 39 9 80 0 57 -3 74 -14 74 -8 0 -19 -13 -25 -30 -9 -27 -14 -30 -50 -30 l-41 0 0 70 0 70 108 0 107 0 20 -38 c39 -72 63 -35 30 46 l-14 32 -180 0 c-109 0 -182 -4 -186 -10z" style="fill: rgb(255, 255, 255);"/><path d="M11015 950 c-11 -17 5 -30 36 -30 l29 0 0 -165 c0 -91 -3 -166 -7 -166 -5 -1 -18 -3 -31 -4 -29 -3 -36 -10 -28 -30 8 -23 171 -18 171 5 0 9 -11 16 -27 18 l-28 3 0 157 c0 88 4 152 9 147 4 -6 61 -85 125 -177 158 -226 156 -226 156 22 l0 190 30 0 c23 0 30 4 30 20 0 18 -7 20 -86 20 -76 0 -85 -2 -82 -17 2 -11 14 -19 31 -21 l27 -3 0 -137 0 -136 -52 75 c-28 41 -77 110 -108 154 l-56 80 -66 3 c-39 2 -69 -2 -73 -8z" style="fill: rgb(255, 255, 255);"/><path d="M11680 900 c0 -45 4 -60 14 -60 9 0 17 15 21 40 l7 40 59 0 59 0 -2 -167 -3 -168 -33 -1 c-38 -1 -47 -7 -38 -29 5 -13 22 -15 108 -13 89 3 103 5 106 21 3 14 -4 17 -37 17 l-41 0 0 170 0 171 63 -3 62 -3 3 -38 c3 -30 7 -37 20 -35 9 2 17 9 16 16 -1 6 -2 32 -2 57 l-2 45 -190 0 -190 0 0 -60z" style="fill: rgb(255, 255, 255);"/><path d="M12928 954 c-15 -15 6 -34 38 -34 l34 0 -2 -167 -3 -168 -43 -3 c-34 -3 -43 -7 -40 -20 3 -15 25 -17 201 -20 153 -2 199 0 202 10 3 7 6 42 8 78 1 51 -1 65 -12 65 -10 0 -19 -18 -25 -50 -9 -40 -16 -50 -36 -56 -39 -11 -178 -10 -185 1 -3 5 -6 81 -6 167 l0 158 33 5 c20 3 33 11 33 20 0 12 -19 16 -95 18 -53 1 -99 0 -102 -4z" style="fill: rgb(255, 255, 255);"/><path d="M2824 748 c-167 -201 -265 -328 -255 -328 14 0 411 390 411 404 0 7 -10 22 -23 34 l-23 22 -110 -132z" style="fill: rgb(255, 255, 255);"/><path d="M1229 493 c-173 -250 -210 -305 -206 -309 4 -4 317 328 329 350 4 8 -3 23 -20 40 l-28 26 -75 -107z" style="fill: rgb(255, 255, 255);"/><path d="M1364 354 c-54 -74 -120 -164 -146 -200 -26 -35 -44 -64 -40 -64 7 0 200 193 302 302 l44 48 -24 25 c-13 14 -26 25 -30 25 -3 0 -51 -61 -106 -136z" style="fill: rgb(255, 255, 255);"/></g></svg>